<?xml version="1.0" encoding="UTF-8" standalone="no"?>
<!-- Created with Inkscape (http://www.inkscape.org/) -->

<svg
   xmlns:svg="http://www.w3.org/2000/svg"
   xmlns="http://www.w3.org/2000/svg"
   version="1.1"
   width="506.64099"
   height="313.92099"
   viewBox="0 0 506.641 313.921"
   id="Layer_1"
   xml:space="preserve"><defs
   id="defs13" />
    
    <g
   id="g3">
        
        <g
   id="g5">
            
            <path
   d="m 12,0 c 0.4,0 0.8,0 1.2,0 3.154,2.096 3.969,6.608 6,10.32 1.452,2.654 4.305,5.611 6.24,7.44 1.53,1.446 5.485,4.773 7.92,4.56 2.283,-0.2 4.473,-4.098 6.96,-5.04 2.203,-0.834 6.064,-1.743 8.4,-1.44 2.202,0.285 3.781,2.403 6,2.64 5.421,0.58 9.725,-0.56 13.68,1.92 1.164,0.73 2.506,3.152 4.08,3.6 1.673,0.477 3.526,-0.169 4.32,-0.48 7.428,-2.904 3.512,-18.309 13.68,-16.56 1.443,1.928 -0.279,3.914 -0.72,6.24 -0.91,4.797 1.078,10.666 -1.44,13.92 3.453,1.273 4.691,-0.873 7.44,-2.88 3.72,-2.718 9.987,-7.214 15.12,-7.92 4.025,-0.554 6.139,1.011 8.16,3.12 0.453,2.369 0.362,6.066 -0.24,8.16 29.072,-1.182 55.837,-10.003 86.16,-9.84 14.443,0.078 27.923,3.939 42,6 14.727,2.155 30.606,1.389 46.081,0.48 15.131,-0.889 30,-2.168 44.88,-3.12 14.822,-0.949 29.769,-1.981 44.399,-3.6 14.066,-1.556 27.647,-5.065 42.24,-5.76 7.882,-0.375 15.444,0.079 23.04,-0.96 9.437,-1.291 18.979,-4.622 30.24,-3.12 5.778,0.771 9.98,6.043 13.44,10.32 2.972,3.674 5.629,7.659 7.199,12.24 3.561,10.381 2.401,23.241 2.4,36 -0.001,12.557 -1.533,24.978 -0.479,37.44 1.025,12.141 0.874,25.202 0,37.68 -0.452,6.442 0.234,9.862 1.92,15.36 1.359,4.436 3.205,9.221 3.6,14.64 0.981,13.478 -2.934,26.372 0.72,38.64 0,0.16 0,0.32 0,0.48 -2.37,-0.989 -3.271,-3.449 -3.84,-6.24 -1.088,2.352 -1.333,5.547 -1.92,8.4 -1.977,-4.023 -0.277,-11.723 -2.88,-15.12 -1.853,12.889 -2.394,26.75 -1.2,40.56 0.824,9.535 2.66,18.35 3.12,29.28 0.145,3.424 -0.925,7.543 -0.24,10.32 0.377,1.526 3.009,3.313 1.681,5.76 4.188,1.489 4.006,6.547 -2.4,6 -0.402,3.038 -0.875,6.005 -1.92,8.4 -0.351,1.31 1.697,0.223 1.2,1.68 -0.222,2.158 -2.124,2.545 -2.88,4.8 -0.878,2.618 -0.222,5.702 -1.92,7.44 -2.287,2.339 -6.222,1.322 -10.32,2.16 -6.08,0 -12.16,0 -18.24,0 -0.663,-0.378 -1.729,-0.352 -2.16,-0.96 -0.448,-0.624 -0.337,-2.292 0.24,-2.641 -0.797,-0.803 -1.078,-0.792 -1.2,-2.16 -0.45,-5.061 7.519,-8.81 10.32,-11.52 0.81,-5.012 5.785,-7.319 6.96,-11.521 0.85,-3.037 0.259,-8.508 0.479,-12.479 0.235,-4.212 1.246,-8.072 0.96,-11.76 -0.151,-1.964 -1.135,-3.739 -1.439,-5.761 -0.84,-5.568 -10e-4,-15.162 -1.92,-19.68 -0.851,-2.002 -2.702,-3.637 -3.84,-5.76 -3.127,-5.835 -3.312,-15.3 -6.721,-21.36 -1.918,-3.41 -5.313,-5.297 -7.439,-7.439 -1.434,12.659 -8.208,21.647 -12.24,32.399 -4.062,10.83 -6.596,22.127 -10.8,33.601 1.281,2.158 1.685,6.93 0.72,9.84 -0.406,0.947 -2.092,-0.716 -3.12,-0.72 -0.122,1.397 -0.254,2.786 -0.72,3.84 -2.665,0.425 -2.625,-1.855 -3.6,-3.12 -1.27,2.571 0.578,8.636 -3.601,8.88 -2.813,9.343 -23.567,5.85 -31.2,2.88 2.04,-5.24 4.672,-9.888 9.84,-12 1.03,-3.99 4.757,-7.199 8.4,-9.36 0.185,-3.342 2.365,-5.202 3.6,-7.92 4.971,-10.936 12.078,-25.546 12.24,-40.56 0.08,-7.396 -0.763,-14.59 -2.16,-22.32 -2.39,0.329 -4.16,2.979 -6,6.24 -1.297,2.301 -3.048,7.472 -4.8,7.68 -1.473,0.175 -3.252,-1.47 -3.12,-3.6 -5.272,-2.552 0.633,-7.684 0.96,-11.76 -0.766,-2.435 -3.469,-2.932 -5.52,-4.08 -1.553,3.407 -0.643,9.277 -2.16,12.72 -2.49,-0.069 -4.331,-0.789 -5.04,-2.64 -1.365,-0.235 -2.699,-0.502 -3.36,-1.44 -1.218,-2.751 1.202,-8.368 0,-11.521 -0.397,-1.042 -2.532,-2.031 -3.84,-3.119 -1.293,-1.077 -2.44,-2.364 -3.359,-3.36 -1.959,-2.122 -4.619,-6.16 -6.96,-6.48 -4.512,-0.616 -8.925,5.635 -12.24,7.92 -8.488,5.853 -17.985,7.755 -27.601,12.48 -5.486,2.697 -9.59,6.289 -17.28,5.76 -4.884,-0.336 -9.507,-2.872 -15.119,-3.84 -10.76,-1.854 -21.625,-3.619 -31.921,-6 -7.206,-1.666 -12.246,-4.184 -20.399,-3.6 -8.391,0.601 -16.137,1.794 -24.24,4.56 0.141,15.212 -0.301,31.719 0.48,48.24 0.316,6.698 -0.021,16.21 1.68,22.56 0.737,2.754 1.909,5.981 3.12,9.12 1.105,2.863 5.915,10.632 0,10.561 -0.006,3.113 -1.567,4.672 -3.84,5.52 0.381,2.14 -1.923,2.552 -2.88,3.601 -0.736,0.807 -1.027,2.348 -1.68,3.12 -2.142,2.532 -5.136,4.337 -7.68,6.479 -6.446,-1.556 -24.124,3.627 -24.48,-3.6 -0.212,-4.307 7.144,-7.575 9.6,-10.32 0.958,-1.07 1.859,-3.336 3.12,-4.8 2.36,-2.738 5.645,-4.37 6.48,-7.2 1.134,-3.84 0.335,-9.283 0,-13.44 -0.844,-10.485 -1.509,-22.407 -6,-29.52 -0.905,-1.434 -2.288,-2.508 -2.88,-4.08 -1.11,-2.945 -0.989,-6.802 -1.68,-10.32 -0.656,-3.343 -1.313,-6.616 -1.68,-10.08 -2.435,5.486 -5.214,12.002 -6.24,19.2 -0.984,6.912 -3.04,13.138 -5.76,19.44 -3.817,8.845 -5.782,18.967 -7.2,30.72 -0.449,3.723 -1.731,8.4 -1.2,11.28 0.165,0.894 1.463,1.71 1.68,2.88 0.447,2.416 -0.955,9.727 -2.16,10.08 -3.148,0.923 -2.204,-4.507 -3.6,-6 -3.198,0.508 -1.509,5.446 -1.44,9.12 -1.23,1.249 -3.105,1.854 -5.52,1.92 -2.124,1.716 -3.154,4.526 -5.28,6.24 -4.659,-0.193 -11.284,-1.438 -14.4,0.96 -3.28,0 -6.56,0 -9.84,0 -0.158,-0.322 -0.513,-0.447 -0.96,-0.48 0.169,-2.7 -1.992,-4.477 -1.92,-6.479 0.153,-4.288 7.454,-6.396 10.56,-8.641 0.552,-1.287 0.817,-2.862 1.68,-3.84 8.863,-2.704 12.392,-11.001 14.88,-20.88 2.262,-8.982 6.348,-19.981 5.28,-30.24 -0.223,-2.14 -1.423,-3.979 -1.68,-6 -1.495,-11.771 6.825,-20.113 3.12,-31.2 -7.229,0.883 -15.864,-3.934 -19.92,-8.88 -2.631,-3.209 -4.512,-7.249 -7.68,-9.84 -2.755,-2.253 -5.994,-3.538 -8.64,-5.521 -5.439,-4.072 -8.75,-9.689 -12.96,-15.359 -1.929,-2.597 -4.175,-5.043 -6.24,-7.681 -4.238,-5.411 -7.506,-11.172 -12.72,-15.6 -5.154,-4.377 -9.286,-9.425 -14.4,-13.68 -7.486,0.072 -12.201,-5.22 -20.88,-3.12 -1.521,0.368 -3.081,1.404 -4.8,1.68 -2.74,0.44 -5.395,-0.861 -7.92,-0.72 -1.411,0.079 -2.6,1.149 -4.08,1.44 -6.358,1.248 -10.044,-3.257 -17.04,-1.92 -2.083,0.398 -4.442,2.217 -6.48,3.36 -2.008,1.126 -4.071,2.811 -6.24,3.6 -3.746,1.362 -9.048,2.179 -13.44,1.44 -5.597,-0.942 -9.247,-5.676 -12.72,-9.84 0,-0.96 0,-1.92 0,-2.88 1.899,-2.392 0.628,-3.861 0,-6.96 0,-1.12 0,-2.24 0,-3.36 0.584,-3.792 3.279,-5.521 4.8,-8.16 1.264,-2.193 2.083,-5.173 3.36,-7.92 1.18,-2.537 2.581,-5.061 3.6,-7.68 1.957,-5.028 4.973,-11.352 6,-16.56 0.965,-4.895 -0.936,-9.965 -0.72,-15.6 -2.436,-2.14 -4.944,-3.667 -7.92,-6 -2.103,-1.648 -6.474,-4.353 -6.24,-7.68 0.213,-3.022 6.256,-6.412 9.84,-8.16 4.226,-2.062 7.933,-2.603 13.44,-2.4 C 17.493,27.201 4.352,13.801 12,0 z m 477.841,165.84 c 0.213,-1.41 1.409,-2.682 1.44,-3.84 0.039,-1.433 -1.085,-3.454 -1.2,-5.04 -0.358,-4.929 0.042,-10.104 0.479,-15.36 1.281,-15.382 0.072,-31.68 0.721,-47.04 0.408,-9.681 0.959,-20.082 0.96,-30.72 0,-10.521 0.355,-22.336 -2.88,-29.04 -1.906,-3.948 -13.547,-13.728 -14.4,-3.36 4.663,3.033 9.677,4.88 12.24,9.6 3.558,6.551 2.771,20.111 1.92,30 -0.892,10.369 -2.33,20.093 -3.84,29.04 -1.523,9.027 -2.787,19.341 -3.84,29.04 -1.121,10.32 -3.061,21.656 -2.4,30.72 0.679,9.32 5.948,16.029 9.84,21.841 0.428,0.638 0.572,2.069 1.68,1.92 0.384,-4.596 -1.574,-12.113 -0.72,-17.761 z"
   id="path7"
   style="fill-rule:evenodd" />
            
            <g
   id="g9" />
            
        </g>
        
    </g>
    
</svg>