<?xml version="1.0" encoding="UTF-8" standalone="no"?>
<!-- Created with Inkscape (http://www.inkscape.org/) -->

<svg
   xmlns:svg="http://www.w3.org/2000/svg"
   xmlns="http://www.w3.org/2000/svg"
   version="1.1"
   width="792"
   height="612"
   viewBox="0 0 792 612"
   id="Layer_1"
   xml:space="preserve"><defs
   id="defs14" />
<g
   id="g3">
	<g
   id="XMLID_1_">
		<g
   id="g6">
			<path
   d="m 97.24,162.84 c -0.19,0.01 -0.37,0.01 -0.54,0.01 -0.03,0 -0.05,0 -0.06,0 0.089,-0.04 0.4,-0.08 0.6,-0.01 z m 456.459,304.29 c 0.15,6.399 -1.369,15.59 4.181,19.84 3.05,-2.82 7.51,-4.66 11.819,-6.07 0.061,6.71 3.5,12.45 7.471,17.561 1.29,-5.54 0.51,-11.73 0.83,-17.48 0.119,-2.1 12.649,4.101 13.729,6.08 2.46,4.54 0.28,16.86 -0.66,21.79 -1.25,6.57 -6.109,11.35 -6.37,17.85 -1.659,-0.29 -4.05,0.631 -5.699,0.301 -0.131,7.25 -6,17 1,22.699 7.56,1.32 16.899,-0.79 24.85,-0.85 12.08,-0.1 13.33,-3.99 15,-15.02 2.44,-16.131 -6.25,-36.12 -1.06,-51.171 5.39,2.171 8.739,6.15 12.909,9.94 -0.09,-10.81 -3.83,-16.9 10.021,-15.85 -0.36,-1.66 0.63,-4.11 0.28,-5.75 2.25,0.5 5.449,-0.811 7.699,-0.301 0.9,-6.54 -5.8,-24.31 4.98,-23 3.16,-8.92 4.68,-23.06 -7.66,-21 -2.86,-5.17 -1.439,-9.27 -5.4,-13.619 -5.939,-6.551 -16.81,-5.011 -24.069,-9.61 -7.19,-4.55 -14.51,-12.43 -18.431,-20.01 -3.76,-7.28 -2.659,-13.271 -2.27,-20.61 0.58,-11 -2.55,-14.53 -7.62,-24.07 1.45,0.11 3.13,-0.229 4.49,-0.08 -0.771,-4.43 -4.89,-6.79 -7.79,-9.68 0.95,-0.29 1.8,-0.13 2.77,-0.32 0.91,-6.619 -0.119,-13.479 -6.6,-16.97 1.61,0.19 3.34,-0.34 4.67,-0.28 -3.78,-8.39 -13.229,-11.8 -16.92,-19.59 -5.6,-11.84 -8.41,-25.21 -15.72,-36.21 -6.8,-10.23 -17.92,-18.84 -26.98,-27.13 -21.02,-19.23 -45.54,-36.29 -74.3,-40.72 -8.15,-1.26 -16.71,-0.97 -25.2,-0.95 -10.53,0.02 -17.51,-3.02 -26.95,-6 -15.77,-4.97 -32.41,-4.35 -48.85,-6 -9.39,-0.94 -18.71,-1.7 -27.98,-4.03 -9.34,-2.34 -17.73,-7.16 -26.92,-9.17 -0.85,-4.67 -0.47,-3.88 -4.95,-4.95 0.06,-1.48 -0.34,-3.22 -0.3,-4.7 -5.16,0.25 -7.58,3.64 -11.84,2.59 -0.39,-0.09 -0.8,-0.23 -1.23,-0.41 -1.32,-0.56 -2.25,-1.69 -3.12,-2.91 -1.51,-1.35 -3.03,-2.87 -4.5,-4.38 -2.71,-2.78 -5.24,-5.51 -7.18,-7.06 -7.81,-6.23 -15.39,-8.72 -23.01,-12.78 -3.08,-1.64 -4.88,-4.58 -7.95,-6.42 -4.02,-2.41 -8.32,-1.9 -12.02,-3.78 -7.09,-3.62 -9.61,-12.13 -16,-16.78 -13.54,-9.84 -25.65,-16.86 -43.78,-16 -14.31,0.69 -33.28,2.16 -45.52,9.48 -4.7,2.81 -13.7,8.82 -16.7,13.25 -6.38,9.43 -3.83,12.92 -16.03,17.3 -9.44,3.39 -38.63,12.25 -39.79,22.58 5.46,2.96 3.09,8.85 6.8,13.14 3.77,4.36 9.67,4.99 15.24,5.81 11.31,1.65 21.25,2.57 30.31,-0.7 -8.65,3.32 -32.07,29.84 -33.38,37.77 7.94,1.77 16.97,-9.76 22.02,0.98 17.76,4.82 48.58,-35.17 58.61,-6.83 3.45,9.76 4.85,18.96 5.37,29.9 4.55,0.85 6.24,2.58 10.92,1.43 -0.14,5.58 -1.78,11.55 2.71,14.57 0.67,-1.31 1.5,-2.1 2.22,-3.05 2.85,1.88 4.72,3.5 5.15,7 1.15,-0.02 2.54,0.12 3.7,0.3 -0.25,4.96 -0.79,10.42 4,11.99 -1.17,8.4 3.82,6.84 6.23,11.03 2.05,3.58 2.34,7.23 3.97,10.78 3.11,6.74 9.57,14.03 15.53,17.2 5.59,14.35 6.29,30.99 16.3,43.37 6.26,7.74 7.81,9.101 10.07,19.69 3.57,16.75 12.59,30.74 15.07,47.771 1.35,9.199 3.9,18.539 4.98,28.02 1.76,15.5 4.01,34.43 -9.75,45.25 -8.2,6.44 -36.16,4.45 -32.25,19.75 2.35,9.21 12.44,7.6 20.45,8.75 10.65,1.52 16.77,2.7 24.8,-4.5 7.27,-6.51 21.58,-41.48 28.63,-41.4 0.67,-4.619 0.45,-9.34 -2.78,-12.649 0.97,-0.21 1.86,-0.15 2.84,-0.3 -2.6,-4.511 -6.67,-8.73 -8.66,-13.9 5.48,-0.71 10.14,3.52 14.67,1.02 -2.54,-2.05 -4.64,-4.88 -5.85,-7.81 3.85,-0.3 7.89,-0.14 11.75,-0.36 1.35,-6.119 -2.84,-10.109 -5.77,-14.42 1.45,0.181 4.07,-0.79 5.77,-0.58 0.4,-6.47 0.97,-13.68 -1.63,-19.77 -2.52,-5.91 -9.08,-9.66 -10.09,-15.93 1.68,0.35 4.23,-0.67 5.77,-0.5 0.18,-5 0.69,-10.311 -0.74,-14.9 2.5,0.68 5.43,-0.3 7.74,-2.75 -0.36,-0.63 -1.2,-1.37 -1.55,-2.05 3.89,0.06 7.76,0.05 11.65,0.05 4.66,0.6 6.13,23.25 8.22,29.78 3.74,11.68 12.34,66.38 -13.02,60.34 -2.71,4.12 -5.56,5.149 -10.05,6.03 -0.74,9.979 3.05,14.029 10.88,19.77 5.05,3.7 3.57,4.79 11.72,1.08 4.78,-2.18 8.51,-3.28 13.25,-5.2 12.74,-5.17 7.38,-12.42 10.2,-23.62 2.05,-8.149 11.48,-11.819 8.19,-21.449 3.01,-3.66 2.06,-11.69 0.98,-16.58 1.76,0.35 4.04,-0.021 5.58,0.699 -3.2,-1.899 -5.74,-5.359 -5.83,-9.46 2.31,-1.5 0.65,-1.22 2.02,-3.22 3.32,-1.77 3.19,-2.97 2.68,-7 -4.74,-0.84 -6.95,-4.41 -5.67,-9.02 1.18,0 2.51,-0.24 3.7,-0.301 0.26,-5.26 -1.93,-17.68 1.35,-21.649 2.62,-3.181 13.3,-6.16 16.78,-7.2 12.98,-3.88 32.66,-4 44.02,-4 15.99,16.51 13.36,43.32 24.93,62.8 20.37,34.33 62.721,61.96 56.07,108.2 -1.05,7.27 -4.06,17.25 -8.03,23.95 -5.5,9.26 -12,6.59 -22.8,7.22 -2.21,4.14 -23.22,19.82 -6.34,22 4.67,15.49 36.61,7.21 46,1.66 -0.11,-9.48 8.28,-22.62 10.92,-32.86 3.2,-12.38 8.19,-23.7 10.03,-36.189 1.859,-12.67 4.59,-19.391 -1.03,-31.48 -5.19,-11.17 -10.32,-22.87 -15.62,-33.13 2.24,0.1 4.79,-0.51 7.11,-0.22 -6.84,-1.25 -9.51,-9.73 -13.24,-14.521 2.18,0.29 5.47,-0.87 7.87,-0.58 -1.351,-4.63 -6.42,-6.689 -6.771,-11.68 1.96,0.39 4.78,-0.68 6.771,-0.32 -0.91,-5.81 -5.7,-9.939 -5.72,-15.699 1.93,0.409 4.72,-0.71 6.649,-0.301 2.391,-3.35 2.9,-8.22 2.351,-12.479 0.97,-0.33 1.72,-0.2 2.699,-0.51 -0.06,-2.601 1.36,-4.271 1.32,-6.74 5.05,2.29 2.771,17.78 3.98,23.74 11.439,1.899 7.76,20.43 11.02,29.02 0.92,0.18 1.76,0.11 2.68,0.271 -0.479,5.46 0.92,12.46 5.011,14.93 -0.181,6.979 4.899,29.04 12.989,29.77 0.11,-1.229 0.11,-2.47 0.32,-3.68 1.051,-1.184 4.082,-3.854 5.681,-4.894 z"
   id="path8" />
		</g>
		<g
   id="g10">
		</g>
	</g>
</g>
</svg>