<?xml version="1.0" encoding="UTF-8" standalone="no"?>
<!-- Created with Inkscape (http://www.inkscape.org/) -->

<svg
   xmlns:svg="http://www.w3.org/2000/svg"
   xmlns="http://www.w3.org/2000/svg"
   version="1.1"
   width="375.841"
   height="414.961"
   viewBox="0 0 375.841 414.961"
   id="Layer_1"
   xml:space="preserve"><defs
   id="defs19" />
    
    <g
   id="g3">
        
        <g
   id="g5">
            
            <path
   d="m 375.841,216 c -11.766,-39.695 -34.402,-71.466 -62.16,-96.24 -9.552,-8.524 -20.461,-14.929 -34.561,-18.24 -15.156,-3.559 -33.896,-3.887 -48.239,-1.68 -7.372,1.134 -13.068,4.25 -18.721,7.68 -10.779,6.542 -20.918,14.624 -29.04,23.76 -4.13,4.647 -7.055,10.459 -9.6,16.8 -4.933,12.288 -8.521,26.069 -12.48,40.32 -15.311,-4.93 -28.948,-11.532 -47.521,-13.2 0.08,-33.48 -7.385,-60.907 -18.24,-84.24 -5.296,-11.383 -11.668,-22.379 -19.2,-31.92 -7.5,-9.499 -15.968,-18.654 -27.84,-23.28 4.397,-1.272 11.193,-0.166 12,-4.56 0.344,-1.874 -1.347,-3.097 -1.44,-5.52 -0.06,-1.561 0.948,-3.31 0.72,-4.56 -0.314,-1.721 -2.243,-2.212 -3.12,-3.6 -1.186,-1.876 -0.651,-3.139 -1.68,-4.32 -1.08,-0.521 -3.24,0.04 -4.32,-0.48 0.007,-1.324 0.464,-4.013 0,-6 -3.756,1.769 -6.779,6.336 -9.36,10.08 -1.239,-0.681 -0.766,-3.073 -2.4,-3.36 -2.079,0.723 -2.304,4.574 -4.08,4.8 0.452,-3.041 0.769,-5.618 1.2,-9.36 0.279,-2.426 1.679,-7.986 -0.96,-8.64 -3.28,-0.812 -3.774,6.022 -4.56,8.16 -1.298,3.533 -2.203,6.207 -2.88,9.6 C 22.34,13.099 21.231,4.289 14.879,0.72 14.539,8.341 17.825,12.335 18,19.44 17.244,19.738 16.467,18.429 15.84,17.76 13.737,15.517 10.792,12.833 7.92,11.28 5.904,15.133 10.296,18.173 11.28,21.36 9.3,21.418 7.619,19.103 4.8,19.2 3.725,20.13 4.672,22.722 5.04,23.76 4.131,24.433 3.124,23.839 2.64,25.2 2.051,26.856 3.662,29.045 4.08,30.24 3.032,34.276 1.363,39.457 2.4,44.4 3.193,48.181 7.405,48.946 9.6,51.12 5.083,52.763 2.03,55.871 0,60 0,40 0,20 0,0 c 125.275,0 250.568,0 375.841,0 0,71.999 0,144.002 0,216 z"
   id="path7"
   style="fill:#ffffff;fill-rule:evenodd" />
            
            <path
   d="m 375.841,216 c 0,0.721 0,1.44 0,2.16 -0.317,0.003 -0.22,0.421 -0.48,0.48 -4.204,-1.901 -6.996,-5.854 -9.6,-9.36 -2.72,-3.663 -5.108,-7.752 -7.92,-11.28 -3.938,-4.94 -9.387,-8.742 -13.2,-13.92 -3.927,-5.332 -6.984,-10.808 -11.04,-16.08 6.256,21.306 18.279,52.066 6.72,76.32 -3.041,-40.88 -18.4,-69.438 -37.199,-94.56 1.711,3.112 0.629,6.363 0.239,9.84 -0.414,3.704 0.441,7.625 0,11.28 -0.148,1.233 -0.855,2.375 -0.96,3.6 -0.23,2.706 1.08,6.235 1.2,9.12 0.234,5.626 0.591,13.413 -1.2,17.76 -1.529,3.714 -4.192,7.641 -4.08,11.28 0.084,2.706 1.651,4.597 1.92,6.72 0.929,7.338 -4.236,6.922 -6,11.28 -0.343,0.848 -0.368,2.583 -0.72,4.32 -0.275,1.36 -0.894,2.756 -1.2,4.079 -0.539,2.327 -0.209,4.513 -0.479,6.96 -0.135,1.214 -0.802,2.238 -0.96,3.36 -0.23,1.633 0.228,3.447 0,5.04 -0.828,5.797 -5.78,8.288 -9.601,11.76 -2.09,5.59 -4.716,10.645 -6.96,16.08 -0.56,-3.44 -0.08,-7.919 -0.24,-11.76 -1.776,0.385 -4.601,1.798 -6.479,2.88 -0.863,4.4 -1.208,9.263 -3.36,12.72 -0.886,1.424 -2.285,2.254 -3.12,3.601 -2.596,4.187 -3.552,9.994 -8.159,11.52 1.383,-5.977 2.193,-12.526 2.159,-19.92 -2.888,5.723 -3.132,14.711 -9.359,17.04 1.754,-5.583 3.437,-12.324 2.64,-19.68 -1.955,7.805 -3.626,15.894 -10.08,19.2 0.198,-3.278 1.377,-5.562 1.44,-8.641 0.158,-7.649 -5.927,-15.502 -2.16,-21.84 -2.211,0.031 -5.319,1.24 -8.16,1.44 6.069,11.824 0.779,28.483 -2.4,39.6 -0.819,-0.221 -0.743,-1.336 -0.96,-2.16 -1.45,2.311 -2.992,4.528 -5.52,5.761 -0.467,-11.693 -0.355,-23.966 -5.04,-31.44 -1.588,1.158 -1.805,3.375 -3.36,5.04 -1.57,1.682 -3.412,2.225 -3.84,4.8 -0.22,1.326 0.24,2.495 0.24,3.84 0,5.939 -1.825,11.567 -4.32,15.841 -6.114,-2.126 -4.389,-12.092 -5.76,-18.961 -1.685,1.197 -3.76,4.08 -6.24,5.28 0.864,2.39 4.395,11.212 0.48,11.76 -2.646,0.371 -2.73,-3.733 -5.28,-4.319 -1.42,-0.326 -1.973,0.422 -4.08,0.72 0.064,1.311 1.911,4.632 0.48,6.72 -1.496,1.145 -4.355,0.925 -6.48,1.44 1.395,4.41 1.282,11.255 -4.32,10.8 -2.913,4.768 -5.336,10.024 -11.28,11.76 -1.671,8.969 -4.419,20.396 -6.48,30.24 -0.441,2.108 -2.294,8.524 -1.68,10.561 0.753,2.495 4.838,1.773 6.96,1.92 -1.07,2.566 -4.581,3.299 -7.68,3.12 -1.355,3.054 0.109,6.665 1.2,8.88 2.32,4.712 7.083,8.411 9.36,12.72 -1.177,-0.743 -2.631,-1.209 -3.6,-2.16 -2.443,3.311 -4.904,-0.666 -6,-2.88 -2.333,5.827 -9.275,7.045 -15.84,8.64 -0.03,-0.989 0.417,-1.502 0.24,-2.64 -3.118,0.482 -5.389,1.811 -9.36,1.44 -0.113,-2.527 -0.889,-4.392 -1.68,-6.24 -1.173,1.411 0.255,3.736 0,5.76 -1.673,1.776 -4.189,0.994 -6,1.68 -1.647,0.624 -2.177,2.4 -3.36,2.881 -1.727,0.7 -3.098,-0.337 -4.8,0 -1.832,0.362 -2.433,2.629 -3.84,3.359 -2.166,-1.611 -6.746,0.104 -7.92,2.4 -0.08,0 -0.16,0 -0.24,0 0.679,-2.297 1.975,-6.015 6,-5.76 -0.771,-1.804 -2.777,-3.045 -4.8,-2.881 -1.287,0.105 -1.791,1.555 -3.6,2.16 -1.632,0.546 -3.611,-0.213 -5.52,0 -2.738,0.307 -5.102,2.646 -7.68,0.24 -1.608,0.554 -2.931,2.666 -4.32,2.64 -0.115,-2.756 2.369,-4.874 4.56,-5.52 0.811,-0.239 1.747,0.193 2.64,0 0.386,-0.084 0.8,-0.83 1.2,-0.96 1.934,-0.629 4.46,-0.377 6.72,-0.96 2.17,-0.561 6.436,-2.085 9.84,-1.68 -0.431,-1.682 -2.672,-1.997 -5.76,-2.4 -2.496,-0.326 -5.206,-2.055 -7.44,0 -0.329,-2.583 2.865,-3.543 4.8,-3.6 0.691,-0.021 1.493,0.726 2.16,0.72 0.829,-0.007 1.266,-0.772 1.92,-0.72 1.138,0.091 2.434,1.042 3.84,1.439 1.97,0.558 4.038,0.614 5.76,0.96 1.347,0.271 2.159,0.985 3.6,0.72 3.332,-0.613 7.564,-7.992 9.36,-11.279 2.524,-4.622 4.263,-9.749 6.24,-14.16 2.073,-4.625 4.052,-9.509 5.76,-14.88 2.578,-8.106 5.141,-16.445 3.12,-26.4 -13.831,-8.569 -28.191,-16.608 -37.44,-29.76 -9.445,-4.892 -19.072,-11.221 -27.36,-18.24 -8.038,-6.808 -14.513,-15.292 -21.36,-24.24 -6.147,-8.033 -13.332,-17.121 -19.68,-25.92 -6.236,-8.644 -12.55,-18.874 -13.44,-31.92 -0.272,-3.986 0.399,-6.815 1.2,-9.84 0.408,-1.541 1.315,-3.231 1.44,-4.8 0.256,-3.203 -1.191,-7.291 -1.68,-11.04 -1.475,-11.313 -3.085,-22.93 -1.2,-35.04 2.315,-14.871 5.636,-27.453 10.8,-40.08 -8.705,0.622 -12.026,-5.408 -16.8,-10.8 C 10.832,87.472 6.643,84.027 6,80.64 4.087,70.557 12.439,67.988 13.2,60 9.23,60.013 4.064,60.853 0,60.96 0,60.64 0,60.32 0,60 2.03,55.871 5.083,52.763 9.6,51.12 7.405,48.946 3.193,48.181 2.4,44.4 1.363,39.457 3.032,34.276 4.08,30.24 3.663,29.045 2.051,26.856 2.64,25.2 3.124,23.839 4.131,24.433 5.04,23.76 4.672,22.722 3.725,20.13 4.8,19.2 c 2.819,-0.098 4.5,2.218 6.48,2.16 -0.984,-3.187 -5.376,-6.227 -3.36,-10.08 2.872,1.553 5.817,4.237 7.92,6.48 0.627,0.668 1.404,1.978 2.16,1.68 C 17.825,12.335 14.539,8.341 14.88,0.72 21.231,4.289 22.341,13.099 27.36,18 c 0.678,-3.394 1.582,-6.067 2.88,-9.6 0.786,-2.138 1.28,-8.972 4.56,-8.16 2.639,0.653 1.239,6.213 0.96,8.64 -0.431,3.742 -0.749,6.319 -1.2,9.36 1.776,-0.226 2.001,-4.078 4.08,-4.8 1.634,0.287 1.161,2.679 2.4,3.36 2.581,-3.744 5.604,-8.311 9.36,-10.08 0.464,1.987 0.007,4.676 0,6 1.08,0.52 3.241,-0.041 4.32,0.48 1.029,1.181 0.494,2.444 1.68,4.32 0.877,1.388 2.806,1.879 3.12,3.6 0.229,1.25 -0.78,2.999 -0.72,4.56 0.093,2.423 1.784,3.646 1.44,5.52 -0.807,4.395 -7.603,3.288 -12,4.56 11.872,4.626 20.34,13.781 27.84,23.28 7.532,9.541 13.904,20.537 19.2,31.92 10.855,23.333 18.319,50.76 18.24,84.24 18.572,1.668 32.21,8.271 47.521,13.2 3.959,-14.251 7.547,-28.033 12.48,-40.32 2.545,-6.34 5.469,-12.153 9.6,-16.8 8.122,-9.137 18.261,-17.219 29.04,-23.76 5.652,-3.43 11.349,-6.545 18.721,-7.68 14.343,-2.207 33.083,-1.879 48.239,1.68 14.1,3.311 25.009,9.716 34.561,18.24 27.756,24.774 50.393,56.545 62.159,96.24 z M 134.4,382.32 c 1.737,1.282 4.247,0.211 6.72,0.24 -2.56,2.641 -6.422,3.979 -10.08,5.521 -1.258,3.244 0.095,7.208 0.96,9.84 3.718,-1.162 7.041,-2.72 10.56,-4.08 1.931,-11.109 4.618,-22.742 4.56,-35.04 -4.078,8.001 -8.929,15.23 -12.72,23.519 z"
   id="path9"
   style="fill-rule:evenodd" />
            
            <path
   d="m 101.04,414.961 c -33.68,0 -67.359,0 -101.04,0 C 0,296.966 0,178.955 0,60.96 4.064,60.853 9.23,60.013 13.2,60 12.439,67.988 4.087,70.557 6,80.64 c 0.643,3.387 4.832,6.832 7.92,10.32 4.774,5.393 8.095,11.422 16.8,10.8 -5.164,12.627 -8.485,25.209 -10.8,40.08 -1.885,12.11 -0.274,23.727 1.2,35.04 0.489,3.75 1.936,7.837 1.68,11.04 -0.125,1.568 -1.032,3.259 -1.44,4.8 -0.8,3.025 -1.472,5.854 -1.2,9.84 0.89,13.046 7.204,23.276 13.44,31.92 6.348,8.799 13.533,17.887 19.68,25.92 6.847,8.948 13.322,17.433 21.36,24.24 8.288,7.02 17.915,13.349 27.36,18.24 9.249,13.151 23.609,21.19 37.44,29.76 2.021,9.955 -0.542,18.294 -3.12,26.4 -1.708,5.371 -3.687,10.255 -5.76,14.88 -1.977,4.411 -3.715,9.538 -6.24,14.16 -1.796,3.287 -6.028,10.666 -9.36,11.279 -1.441,0.266 -2.253,-0.448 -3.6,-0.72 -1.722,-0.346 -3.79,-0.402 -5.76,-0.96 -1.406,-0.397 -2.702,-1.349 -3.84,-1.439 -0.654,-0.053 -1.091,0.713 -1.92,0.72 -0.667,0.006 -1.469,-0.74 -2.16,-0.72 -1.935,0.057 -5.129,1.017 -4.8,3.6 2.234,-2.055 4.944,-0.326 7.44,0 3.087,0.403 5.329,0.719 5.76,2.4 -3.404,-0.405 -7.67,1.119 -9.84,1.68 -2.26,0.583 -4.786,0.331 -6.72,0.96 -0.4,0.13 -0.813,0.876 -1.2,0.96 -0.893,0.193 -1.829,-0.239 -2.64,0 -2.191,0.646 -4.675,2.764 -4.56,5.52 1.389,0.026 2.711,-2.086 4.32,-2.64 2.578,2.406 4.942,0.066 7.68,-0.24 1.909,-0.213 3.888,0.546 5.52,0 1.81,-0.605 2.313,-2.055 3.6,-2.16 2.022,-0.164 4.029,1.077 4.8,2.881 -4.025,-0.255 -5.321,3.463 -6,5.76 z"
   id="path11"
   style="fill:#ffffff;fill-rule:evenodd" />
            
            <path
   d="m 147.12,358.801 c 0.058,12.298 -2.629,23.931 -4.56,35.04 -3.52,1.36 -6.842,2.918 -10.56,4.08 -0.865,-2.632 -2.218,-6.596 -0.96,-9.84 3.658,-1.542 7.521,-2.88 10.08,-5.521 -2.473,-0.029 -4.982,1.042 -6.72,-0.24 3.791,-8.289 8.642,-15.518 12.72,-23.519 z"
   id="path13"
   style="fill:#ffffff;fill-rule:evenodd" />
            
            <path
   d="m 101.28,414.961 c 1.174,-2.296 5.754,-4.012 7.92,-2.4 1.407,-0.73 2.008,-2.997 3.84,-3.359 1.702,-0.337 3.073,0.7 4.8,0 1.183,-0.48 1.713,-2.257 3.36,-2.881 1.811,-0.686 4.327,0.097 6,-1.68 0.255,-2.023 -1.173,-4.349 0,-5.76 0.791,1.849 1.567,3.713 1.68,6.24 3.971,0.37 6.242,-0.958 9.36,-1.44 0.177,1.138 -0.27,1.65 -0.24,2.64 6.564,-1.595 13.507,-2.813 15.84,-8.64 1.096,2.214 3.557,6.19 6,2.88 0.969,0.951 2.423,1.417 3.6,2.16 -2.277,-4.309 -7.041,-8.008 -9.36,-12.72 -1.09,-2.215 -2.555,-5.826 -1.2,-8.88 3.1,0.179 6.61,-0.554 7.68,-3.12 -2.122,-0.146 -6.207,0.575 -6.96,-1.92 -0.614,-2.036 1.239,-8.452 1.68,-10.561 2.061,-9.844 4.809,-21.271 6.48,-30.24 5.944,-1.735 8.368,-6.992 11.28,-11.76 5.602,0.455 5.715,-6.39 4.32,-10.8 2.125,-0.516 4.984,-0.296 6.48,-1.44 1.431,-2.088 -0.416,-5.409 -0.48,-6.72 2.107,-0.298 2.66,-1.046 4.08,-0.72 2.55,0.586 2.634,4.69 5.28,4.319 3.914,-0.548 0.384,-9.37 -0.48,-11.76 2.48,-1.2 4.556,-4.083 6.24,-5.28 1.371,6.869 -0.354,16.835 5.76,18.961 2.495,-4.273 4.32,-9.901 4.32,-15.841 0,-1.345 -0.46,-2.514 -0.24,-3.84 0.428,-2.575 2.27,-3.118 3.84,-4.8 1.556,-1.665 1.772,-3.882 3.36,-5.04 4.685,7.475 4.573,19.747 5.04,31.44 2.527,-1.232 4.069,-3.45 5.52,-5.761 0.217,0.824 0.141,1.939 0.96,2.16 3.18,-11.116 8.47,-27.775 2.4,-39.6 2.841,-0.2 5.949,-1.409 8.16,-1.44 -3.767,6.338 2.318,14.19 2.16,21.84 -0.063,3.079 -1.242,5.362 -1.44,8.641 6.454,-3.307 8.125,-11.396 10.08,-19.2 0.797,7.355 -0.886,14.097 -2.64,19.68 6.228,-2.329 6.472,-11.317 9.359,-17.04 0.034,7.394 -0.776,13.943 -2.159,19.92 4.607,-1.525 5.563,-7.333 8.159,-11.52 0.835,-1.347 2.234,-2.177 3.12,-3.601 2.152,-3.457 2.497,-8.319 3.36,-12.72 1.879,-1.082 4.703,-2.495 6.479,-2.88 0.16,3.841 -0.319,8.319 0.24,11.76 2.244,-5.436 4.87,-10.49 6.96,-16.08 3.82,-3.472 8.772,-5.963 9.601,-11.76 0.228,-1.593 -0.23,-3.407 0,-5.04 0.158,-1.122 0.825,-2.146 0.96,-3.36 0.271,-2.447 -0.06,-4.633 0.479,-6.96 0.307,-1.323 0.925,-2.719 1.2,-4.079 0.352,-1.737 0.377,-3.473 0.72,-4.32 1.764,-4.358 6.929,-3.942 6,-11.28 -0.269,-2.123 -1.836,-4.014 -1.92,-6.72 -0.112,-3.64 2.551,-7.566 4.08,-11.28 1.791,-4.347 1.435,-12.133 1.2,-17.76 -0.12,-2.885 -1.431,-6.414 -1.2,-9.12 0.104,-1.225 0.812,-2.367 0.96,-3.6 0.441,-3.656 -0.414,-7.576 0,-11.28 0.39,-3.477 1.472,-6.728 -0.239,-9.84 18.799,25.122 34.158,53.68 37.199,94.56 11.56,-24.254 -0.464,-55.014 -6.72,-76.32 4.056,5.272 7.113,10.748 11.04,16.08 3.813,5.178 9.263,8.98 13.2,13.92 2.812,3.528 5.2,7.617 7.92,11.28 2.604,3.506 5.396,7.459 9.6,9.36 0.261,-0.06 0.163,-0.478 0.48,-0.48 0,65.601 0,131.201 0,196.801 -91.515,0.001 -183.041,0.001 -274.558,0.001 z"
   id="path15"
   style="fill:#ffffff;fill-rule:evenodd" />
            
        </g>
        
    </g>
    
</svg>