<?xml version="1.0" encoding="UTF-8" standalone="no"?>
<!-- Created with Inkscape (http://www.inkscape.org/) -->

<svg
   xmlns:svg="http://www.w3.org/2000/svg"
   xmlns="http://www.w3.org/2000/svg"
   version="1.2"
   width="550"
   height="400"
   viewBox="0 0 550 400"
   id="Layer_1"
   xml:space="preserve"><defs
   id="defs7" />
    
    <path
   d="m 345.5,24.15 8.85,16.35 c 0.434,0.8 0.851,1.583 1.25,2.35 0.367,0.733 0.7,1.433 1,2.1 0.301,0.667 0.584,1.333 0.851,2 0.267,0.6 0.5,1.2 0.7,1.8 0.166,0.567 0.316,1.133 0.449,1.7 0.134,0.566 0.233,1.117 0.301,1.65 0.066,0.5 0.116,1.017 0.149,1.55 0,0.5 -0.017,1.017 -0.05,1.55 -0.033,0.5 -0.1,1 -0.2,1.5 -0.1,0.533 -0.217,1.066 -0.35,1.6 -0.167,0.5 -0.351,1.034 -0.55,1.6 -0.2,0.567 -0.417,1.133 -0.65,1.7 -0.267,0.6 -0.55,1.217 -0.85,1.85 -0.301,0.633 -0.617,1.283 -0.95,1.95 l -1.25,2.65 c -0.167,0.367 -0.3,0.733 -0.4,1.1 -0.133,0.367 -0.25,0.717 -0.35,1.05 -0.101,0.333 -0.167,0.667 -0.2,1 -0.066,0.367 -0.116,0.733 -0.15,1.1 l -0.1,2.4 c 0,0.767 -0.017,1.483 -0.05,2.15 -0.033,0.667 -0.084,1.3 -0.15,1.9 -0.1,0.567 -0.217,1.117 -0.35,1.65 -0.134,0.5 -0.283,1 -0.45,1.5 -0.2,0.434 -0.417,0.883 -0.65,1.35 -0.267,0.433 -0.55,0.867 -0.85,1.3 -0.333,0.434 -0.7,0.867 -1.1,1.3 -0.434,0.433 -0.884,0.883 -1.351,1.35 -0.366,0.367 -0.717,0.733 -1.05,1.1 -0.333,0.333 -0.634,0.7 -0.9,1.1 -0.3,0.333 -0.583,0.7 -0.85,1.1 -0.267,0.367 -0.5,0.75 -0.7,1.15 -0.233,0.367 -0.434,0.75 -0.6,1.15 -0.167,0.367 -0.316,0.75 -0.45,1.15 l -1.85,4.6 c -0.2,0.434 -0.367,0.8 -0.5,1.1 -0.233,0.434 -0.45,0.883 -0.65,1.35 -0.2,0.433 -0.384,0.9 -0.55,1.4 -0.167,0.5 -0.316,1.017 -0.45,1.55 -0.134,0.566 -0.25,1.167 -0.35,1.8 -0.134,0.6 -0.233,1.267 -0.301,2 -0.1,0.7 -0.183,1.467 -0.25,2.3 L 338,124 l 2.9,4.25 c 0.267,0.433 0.566,0.867 0.899,1.3 0.334,0.4 0.667,0.817 1,1.25 0.334,0.4 0.684,0.8 1.05,1.2 0.367,0.4 0.733,0.783 1.101,1.15 0.366,0.367 0.75,0.733 1.149,1.1 0.367,0.367 0.75,0.717 1.15,1.05 0.4,0.3 0.8,0.617 1.2,0.95 0.399,0.3 0.8,0.583 1.2,0.85 0.399,0.267 0.8,0.517 1.199,0.75 0.4,0.233 0.801,0.467 1.2,0.7 l 2.65,1.6 c 0.2,0.167 0.383,0.317 0.55,0.45 0.134,0.1 0.35,0.283 0.65,0.55 l 11.199,8.35 5,4.25 2.551,1.55 2.8,1 2.2,0.5 12.649,1.65 c 0.4,0.1 0.816,0.216 1.25,0.35 0.4,0.1 0.783,0.217 1.15,0.35 0.366,0.133 0.733,0.283 1.1,0.45 0.334,0.167 0.684,0.333 1.05,0.5 0.4,0.2 0.834,0.45 1.301,0.75 0.466,0.3 0.949,0.633 1.449,1 0.467,0.367 0.967,0.783 1.5,1.25 0.534,0.433 1.084,0.9 1.65,1.4 0.533,0.467 1.066,0.983 1.6,1.55 0.567,0.534 1.117,1.083 1.65,1.65 0.533,0.566 1.066,1.133 1.6,1.7 0.5,0.567 1,1.15 1.5,1.75 0.467,0.567 0.934,1.133 1.4,1.7 0.4,0.533 0.8,1.083 1.2,1.65 0.366,0.533 0.7,1.05 1,1.55 0.3,0.467 0.566,0.917 0.8,1.35 l 7.85,16.4 0.351,0.95 c 0.233,0.533 0.383,0.95 0.45,1.25 0.066,0.367 0.149,0.817 0.25,1.35 l 0.25,1.65 0.899,15.65 -0.149,3.899 c -0.034,0.533 -0.067,1.033 -0.101,1.5 l -0.35,3.15 c -0.033,0.399 -0.05,0.783 -0.05,1.149 0,0.334 0.017,0.667 0.05,1 0.033,0.267 0.083,0.567 0.149,0.9 0.067,0.3 0.15,0.616 0.25,0.95 l 0.95,2.25 c 0.3,0.7 0.601,1.483 0.9,2.35 0.3,0.834 0.6,1.75 0.899,2.75 0.267,0.967 0.517,1.983 0.75,3.05 0.267,1.101 0.517,2.233 0.75,3.4 0.2,1.167 0.417,2.4 0.65,3.7 0.2,1.267 0.384,2.6 0.55,4 0.167,1.333 0.334,2.733 0.5,4.2 0.134,1.466 0.267,2.966 0.4,4.5 0.1,1.5 0.2,3.05 0.3,4.649 0.1,1.601 0.184,3.233 0.25,4.9 0.066,1.633 0.116,3.316 0.15,5.05 0,1.7 0.017,3.434 0.05,5.2 l 0.05,10.649 0.65,10.101 5.399,23.25 1.4,8.2 -0.15,20.3 -0.899,9.85 -7.15,35.25 -1.2,4.45 c -0.166,0.4 -0.333,0.95 -0.5,1.65 l -6.95,38.55 -0.3,1.05 c -0.1,0.333 -0.184,0.717 -0.25,1.15 -0.1,0.466 -0.184,0.966 -0.25,1.5 l -0.25,1.699 -0.7,13.5 -2.1,17.7 c -0.134,0.634 -0.25,1.217 -0.35,1.75 -0.134,0.5 -0.267,0.983 -0.4,1.45 -0.134,0.434 -0.267,0.833 -0.4,1.2 -0.133,0.333 -0.267,0.666 -0.399,1 -0.167,0.333 -0.351,0.649 -0.55,0.95 l -7.301,14 c -0.3,0.533 -0.6,1.05 -0.899,1.55 -0.3,0.467 -0.601,0.899 -0.9,1.3 -0.299,0.401 -0.616,0.816 -0.95,1.25 -0.366,0.4 -0.75,0.8 -1.149,1.2 -0.4,0.399 -0.834,0.833 -1.3,1.3 -0.467,0.434 -0.983,0.917 -1.551,1.45 l -5.25,4.7 -1,13.649 -5,26.351 c -0.267,0.966 -0.5,1.833 -0.699,2.6 -0.233,0.767 -0.45,1.467 -0.65,2.1 -0.2,0.634 -0.4,1.2 -0.6,1.7 -0.2,0.467 -0.4,0.9 -0.601,1.3 -0.2,0.4 -0.416,0.767 -0.649,1.101 -0.134,0.2 -0.25,0.434 -0.351,0.7 -0.133,0.233 -0.233,0.533 -0.3,0.899 -0.1,0.334 -0.184,0.75 -0.25,1.25 l -0.95,43.15 c 0,0.467 0.033,0.934 0.101,1.399 0.033,0.467 0.083,0.917 0.149,1.351 0.066,0.399 0.167,0.833 0.3,1.3 0.101,0.434 0.233,0.884 0.4,1.35 l 3.35,9.9 3.4,14.85 2.75,22.9 c 0.1,0.667 0.184,1.384 0.25,2.15 0.066,0.766 0.116,1.583 0.15,2.449 l 0.05,11.45 -0.8,11.5 c -0.134,0.834 -0.25,1.65 -0.351,2.45 -0.1,0.733 -0.217,1.45 -0.35,2.15 l -4.15,29.1 -4.5,23.05 L 382,756.6 c -0.066,0.267 -0.116,0.7 -0.15,1.301 L 381,785.4 l 0.2,3.5 c 0.033,0.366 0.1,0.699 0.2,1 0.066,0.267 0.166,0.5 0.3,0.699 0.1,0.2 0.217,0.4 0.35,0.601 0.3,0.366 0.667,0.883 1.101,1.55 l 13.949,29.6 0.4,0.65 c 0.2,0.333 0.45,0.767 0.75,1.3 0.3,0.533 0.6,1.117 0.9,1.75 l 4.199,9.25 c 0.267,0.5 0.5,0.934 0.7,1.3 0.3,0.5 0.566,0.983 0.8,1.45 0.2,0.5 0.384,0.983 0.551,1.45 0.166,0.434 0.3,0.884 0.399,1.35 0.066,0.434 0.117,0.9 0.15,1.4 0.033,0.434 0.017,0.917 -0.05,1.45 -0.067,0.5 -0.15,1.017 -0.25,1.55 -0.134,0.5 -0.284,1.066 -0.45,1.7 -0.2,0.6 -0.417,1.233 -0.65,1.899 -0.267,0.634 -0.517,1.25 -0.75,1.851 -0.267,0.6 -0.517,1.149 -0.75,1.649 -0.267,0.5 -0.533,1 -0.8,1.5 -0.267,0.5 -0.55,0.983 -0.85,1.45 -0.301,0.434 -0.617,0.884 -0.95,1.351 -0.367,0.433 -0.733,0.899 -1.101,1.399 -0.433,0.434 -0.883,0.917 -1.35,1.45 -0.467,0.533 -0.983,1.083 -1.55,1.65 l -1.55,1.5 c -0.5,0.366 -0.95,0.683 -1.351,0.949 -0.399,0.233 -0.8,0.4 -1.2,0.5 -0.399,0.101 -0.8,0.15 -1.199,0.15 -0.267,0 -0.551,0.033 -0.851,0.1 -0.333,0.034 -0.649,0.101 -0.95,0.2 -0.333,0.066 -0.666,0.167 -1,0.3 -0.333,0.101 -0.649,0.233 -0.949,0.4 -0.334,0.134 -0.617,0.283 -0.851,0.45 -0.366,0.2 -0.767,0.383 -1.2,0.55 -0.433,0.134 -0.883,0.267 -1.35,0.4 -0.5,0.1 -1.017,0.199 -1.55,0.3 -0.533,0.033 -1.084,0.066 -1.65,0.1 h -0.649 c -0.467,0 -0.934,-0.017 -1.4,-0.05 -0.466,-0.033 -0.934,-0.083 -1.4,-0.15 -0.6,-0.066 -1.166,-0.166 -1.699,-0.3 -0.567,-0.133 -1.101,-0.3 -1.601,-0.5 -0.467,-0.166 -0.899,-0.333 -1.3,-0.5 -0.434,-0.2 -0.816,-0.383 -1.15,-0.55 -0.333,-0.2 -0.649,-0.417 -0.949,-0.65 -0.301,-0.233 -0.567,-0.483 -0.801,-0.75 -0.267,-0.3 -0.517,-0.616 -0.75,-0.949 -0.267,-0.367 -0.517,-0.75 -0.75,-1.15 -0.233,-0.434 -0.466,-0.917 -0.699,-1.45 -0.267,-0.533 -0.534,-1.116 -0.801,-1.75 l -1.1,-2.399 c -0.333,-0.634 -0.667,-1.15 -1,-1.551 -0.366,-0.399 -0.783,-0.767 -1.25,-1.1 -0.467,-0.333 -1.05,-0.65 -1.75,-0.95 -1.233,-0.6 -2.25,-1.3 -3.05,-2.1 -0.834,-0.834 -1.483,-1.851 -1.95,-3.05 -0.233,-0.601 -0.434,-1.267 -0.6,-2 -0.167,-0.733 -0.284,-1.517 -0.351,-2.351 -0.1,-0.866 -0.166,-1.8 -0.2,-2.8 -0.033,-1 -0.033,-2.083 0,-3.25 l 0.15,-7.2 -8.4,-7.6 c -0.566,-0.467 -1.066,-0.851 -1.5,-1.15 L 344.9,820 c -0.334,-0.233 -0.634,-0.467 -0.9,-0.7 -0.267,-0.267 -0.517,-0.517 -0.75,-0.75 -0.233,-0.267 -0.434,-0.533 -0.6,-0.8 -0.233,-0.267 -0.417,-0.517 -0.551,-0.75 -0.166,-0.3 -0.316,-0.583 -0.449,-0.85 -0.267,-0.567 -0.45,-1.167 -0.551,-1.801 -0.066,-0.333 -0.116,-0.683 -0.149,-1.05 -0.033,-0.366 -0.05,-0.75 -0.05,-1.149 0,-0.4 0.017,-0.817 0.05,-1.25 l 0.1,-1.351 1.351,-7.149 c 0.1,-0.601 0.216,-1.233 0.35,-1.9 l 0.95,-6.75 1.8,-35.7 c 0.033,-0.566 0.05,-1.083 0.05,-1.55 -0.033,-0.533 -0.066,-1.033 -0.1,-1.5 -0.034,-0.467 -0.084,-0.917 -0.15,-1.35 -0.066,-0.434 -0.133,-0.834 -0.2,-1.2 -0.1,-0.4 -0.199,-0.783 -0.3,-1.15 l -0.25,-0.8 -4.399,-21.2 c -0.233,-1 -0.467,-2 -0.7,-3 -0.233,-1.066 -0.45,-2.133 -0.65,-3.2 -0.233,-1.1 -0.434,-2.199 -0.6,-3.3 -0.2,-1.133 -0.384,-2.283 -0.55,-3.45 -0.2,-1.133 -0.367,-2.283 -0.5,-3.449 -0.134,-1.2 -0.267,-2.384 -0.4,-3.551 -0.134,-1.199 -0.233,-2.383 -0.3,-3.55 -0.101,-1.2 -0.184,-2.366 -0.25,-3.5 l -0.851,-7.75 c -0.1,-0.533 -0.199,-1.066 -0.3,-1.6 -0.133,-0.533 -0.267,-1.05 -0.399,-1.55 l -5.551,-18.95 c -0.533,-2.066 -1,-4.084 -1.399,-6.05 -0.434,-2 -0.8,-3.917 -1.101,-5.75 -0.3,-1.867 -0.55,-3.7 -0.75,-5.5 -0.199,-1.801 -0.35,-3.567 -0.449,-5.301 -0.101,-1.767 -0.134,-3.533 -0.101,-5.3 0,-1.767 0.05,-3.517 0.15,-5.25 0.1,-1.733 0.267,-3.517 0.5,-5.35 0.2,-1.834 0.45,-3.684 0.75,-5.55 l 1.85,-13.75 -0.149,-1.7 c -0.101,-0.533 -0.233,-1.05 -0.4,-1.55 -0.167,-0.5 -0.384,-1.034 -0.65,-1.601 L 323.9,601.4 c -0.167,-0.601 -0.284,-1.067 -0.351,-1.4 l -2.899,-18.15 -4.55,-56.2 -1.85,-13.301 -11,-35 -0.1,-0.149 -0.051,-0.05 c -0.066,0 -0.133,0.05 -0.199,0.149 -0.067,0.101 -0.134,0.233 -0.2,0.4 -0.066,0.166 -0.101,0.383 -0.101,0.649 -0.033,0.2 -0.05,0.45 -0.05,0.75 l -3.649,35.65 1.399,43.35 L 300,569.9 c -0.066,1.133 -0.134,2.216 -0.2,3.25 -0.1,1 -0.2,1.916 -0.3,2.75 -0.1,0.833 -0.2,1.583 -0.3,2.25 -0.134,0.633 -0.267,1.166 -0.4,1.6 l -0.25,0.85 -2.5,13.351 5.4,16.75 2.3,9.1 1.55,8.7 c 0.134,0.9 0.25,1.8 0.351,2.7 0.1,0.866 0.183,1.717 0.25,2.55 0.066,0.833 0.116,1.65 0.149,2.45 0.033,0.767 0.066,1.517 0.101,2.25 l -0.9,11.25 L 301.2,678 c -0.033,0.634 -0.05,1.15 -0.05,1.55 l -0.45,6.65 -4.3,29.2 0.55,18 6.149,55.35 0.2,1.1 c 0.066,0.434 0.134,0.917 0.2,1.45 l 0.4,6.7 c 0,0.533 0,1.017 0,1.45 -0.101,2.1 -0.417,3.883 -0.95,5.35 -0.533,1.434 -1.434,2.667 -2.7,3.7 -1.267,1 -3.017,1.917 -5.25,2.75 -1.134,0.4 -2.417,0.816 -3.85,1.25 -1.467,0.4 -3.084,0.833 -4.851,1.3 l -9.399,2.55 -2.45,0.95 c -0.367,0.167 -0.7,0.334 -1,0.5 -0.333,0.167 -0.633,0.351 -0.9,0.55 -0.3,0.167 -0.566,0.351 -0.8,0.551 -0.533,0.399 -1,0.833 -1.4,1.3 -0.434,0.434 -0.85,0.95 -1.25,1.55 l -7.75,13.9 c -0.267,0.533 -0.55,1.05 -0.85,1.55 -0.333,0.5 -0.633,0.983 -0.9,1.45 -0.3,0.466 -0.6,0.899 -0.9,1.3 -0.267,0.366 -0.534,0.7 -0.8,1 -0.233,0.3 -0.45,0.533 -0.65,0.7 -0.267,0.199 -0.55,0.399 -0.85,0.6 -0.3,0.2 -0.633,0.4 -1,0.6 -0.367,0.2 -0.75,0.4 -1.15,0.601 l -4.05,1.649 -5.65,1.4 c -0.433,0.033 -0.816,0.066 -1.15,0.1 -0.4,0.034 -0.75,0.051 -1.05,0.051 h -0.5 c -0.5,0 -0.934,0.017 -1.3,0.05 -0.466,0.066 -0.883,0.166 -1.25,0.3 -0.4,0.1 -0.767,0.267 -1.1,0.5 -0.333,0.2 -0.667,0.467 -1,0.8 -0.333,0.267 -0.65,0.533 -0.95,0.8 -0.367,0.267 -0.717,0.5 -1.05,0.7 -0.333,0.2 -0.684,0.384 -1.05,0.55 -0.4,0.167 -0.816,0.317 -1.25,0.45 -0.4,0.101 -0.85,0.2 -1.35,0.3 -0.5,0.101 -1.017,0.167 -1.55,0.2 -0.567,0.066 -1.15,0.117 -1.75,0.15 -0.633,0 -1.317,0 -2.05,0 h -0.1 c -0.733,0 -1.417,-0.017 -2.05,-0.05 -0.667,-0.034 -1.283,-0.084 -1.85,-0.15 -0.567,-0.066 -1.117,-0.15 -1.65,-0.25 -0.5,-0.1 -0.983,-0.217 -1.45,-0.35 -0.467,-0.167 -0.9,-0.334 -1.3,-0.5 -0.4,-0.2 -0.783,-0.417 -1.15,-0.65 -0.367,-0.233 -0.717,-0.483 -1.05,-0.75 -0.333,-0.3 -0.633,-0.6 -0.9,-0.9 -0.233,-0.267 -0.483,-0.517 -0.75,-0.75 l -1.75,-1.55 c -0.3,-0.233 -0.567,-0.434 -0.8,-0.6 -0.667,-0.467 -1.217,-1.167 -1.65,-2.101 -0.233,-0.5 -0.433,-1.033 -0.6,-1.6 -0.167,-0.6 -0.316,-1.233 -0.45,-1.9 -0.1,-0.699 -0.184,-1.449 -0.25,-2.25 -0.067,-0.8 -0.1,-1.633 -0.1,-2.5 0,-0.899 0.033,-1.833 0.1,-2.8 0.033,-0.967 0.117,-1.967 0.25,-3 l 0.6,-4.45 0.25,-1.05 c 0.133,-0.666 0.317,-1.217 0.55,-1.649 0.2,-0.434 0.433,-0.784 0.7,-1.051 0.1,-0.133 0.233,-0.316 0.4,-0.55 l 0.55,-0.75 2.3,-4.3 c 0.267,-0.6 0.55,-1.15 0.85,-1.65 0.267,-0.533 0.533,-0.983 0.8,-1.35 0.267,-0.4 0.55,-0.767 0.85,-1.1 0.3,-0.334 0.617,-0.617 0.95,-0.851 0.3,-0.267 0.65,-0.483 1.05,-0.649 0.4,-0.233 0.833,-0.417 1.3,-0.551 0.467,-0.166 0.983,-0.3 1.55,-0.399 0.533,-0.134 1.133,-0.25 1.8,-0.351 l 2,-0.399 3.35,-1.101 c 0.534,-0.267 1.083,-0.583 1.65,-0.949 l 2.75,-2.101 6.45,-6 c 1.233,-1.2 2.417,-2.366 3.55,-3.5 1.133,-1.166 2.2,-2.267 3.2,-3.3 0.967,-1.066 1.883,-2.083 2.75,-3.05 0.867,-1 1.667,-1.95 2.4,-2.851 0.7,-0.899 1.35,-1.767 1.95,-2.6 0.6,-0.833 1.15,-1.634 1.65,-2.4 0.467,-0.767 0.883,-1.5 1.25,-2.199 0.367,-0.7 0.667,-1.367 0.9,-2 l 0.8,-2.4 c 0.1,-0.366 0.2,-0.733 0.3,-1.1 0.033,-0.4 0.083,-0.784 0.15,-1.15 0.034,-0.4 0.05,-0.833 0.05,-1.3 l -0.15,-5.55 c -0.067,-0.834 -0.15,-1.75 -0.25,-2.75 -0.1,-1.034 -0.233,-2.15 -0.4,-3.351 -0.167,-1.2 -0.35,-2.467 -0.55,-3.8 -0.233,-1.366 -0.467,-2.783 -0.7,-4.25 l -12.35,-56.6 -3.85,-20.551 c -0.1,-0.8 -0.184,-1.566 -0.25,-2.3 -0.067,-0.733 -0.1,-1.434 -0.1,-2.1 l -0.4,-3.9 c -0.1,-0.6 -0.2,-1.116 -0.3,-1.55 -0.133,-0.434 -0.25,-0.767 -0.35,-1 -0.133,-0.267 -0.267,-0.616 -0.4,-1.05 -0.133,-0.434 -0.25,-0.95 -0.35,-1.55 -0.1,-0.634 -0.2,-1.317 -0.3,-2.051 -0.1,-0.767 -0.183,-1.583 -0.25,-2.449 l -0.6,-12.7 0.55,-21.601 c 0.066,-1.133 0.15,-2.199 0.25,-3.199 0.1,-1 0.217,-1.95 0.35,-2.851 l 0.35,-3.149 c 0,-0.434 0.017,-0.834 0.05,-1.2 0,-0.367 -0.017,-0.7 -0.05,-1 -0.033,-0.334 -0.066,-0.65 -0.1,-0.95 -0.067,-0.3 -0.133,-0.6 -0.2,-0.9 l -3,-9.1 -5.5,-24.2 -0.9,-5.85 -6.6,-24.3 c -0.167,-0.767 -0.333,-1.7 -0.5,-2.801 -0.167,-1.133 -0.333,-2.416 -0.5,-3.85 -0.2,-1.434 -0.383,-3 -0.55,-4.7 -0.167,-1.733 -0.333,-3.583 -0.5,-5.55 l -2.55,-37 -3.6,-30 -3.15,-31.05 1.85,-9.55 3.2,-12.801 c 0.2,-0.633 0.383,-1.183 0.55,-1.649 l 0.6,-1.601 c 0.167,-0.5 0.316,-0.983 0.45,-1.449 0.133,-0.5 0.25,-1.017 0.35,-1.551 l 0.3,-1.85 1.35,-27.4 0.35,-2.35 c 0,-0.167 0.017,-0.267 0.05,-0.3 0.066,-0.101 0.133,-0.3 0.2,-0.601 0.067,-0.3 0.133,-0.683 0.2,-1.149 l 0.6,-17.8 8.95,-26.25 -0.1,-7.801 -0.9,-10.3 -0.7,-2.85 c -0.567,-2.101 -1.117,-4.134 -1.65,-6.101 -0.533,-2 -1.017,-3.916 -1.45,-5.75 -0.467,-1.833 -0.9,-3.633 -1.3,-5.399 -0.4,-1.8 -0.767,-3.533 -1.1,-5.2 -0.367,-1.7 -0.684,-3.384 -0.95,-5.05 -0.3,-1.667 -0.583,-3.316 -0.85,-4.95 -0.233,-1.667 -0.467,-3.333 -0.7,-5 -0.233,-1.7 -0.434,-3.4 -0.6,-5.1 -0.133,-1.5 -0.283,-2.834 -0.45,-4 -0.167,-1.167 -0.316,-2.15 -0.45,-2.95 -0.333,-1.634 -0.733,-2.65 -1.2,-3.05 -0.167,-0.167 -0.35,-0.25 -0.55,-0.25 -0.367,0 -0.8,0.216 -1.3,0.649 -0.4,0.334 -0.85,0.8 -1.35,1.4 -0.5,0.6 -1.066,1.316 -1.7,2.149 l -4.5,4.9 c -0.267,0.233 -0.5,0.434 -0.7,0.6 -0.3,0.2 -0.65,0.434 -1.05,0.7 -0.4,0.266 -0.867,0.55 -1.4,0.851 l -1.8,0.949 -18,7.75 c -0.566,0.2 -1.083,0.367 -1.55,0.5 -0.434,0.101 -0.917,0.25 -1.45,0.45 l -9.95,3.95 c -1.233,0.566 -2.383,1.1 -3.45,1.6 -1.1,0.467 -2.1,0.9 -3,1.301 -0.933,0.366 -1.817,0.699 -2.65,1 -0.867,0.3 -1.667,0.566 -2.4,0.8 -0.733,0.233 -1.45,0.434 -2.15,0.6 -0.7,0.134 -1.367,0.267 -2,0.4 -0.633,0.066 -1.267,0.133 -1.9,0.2 -0.633,0.033 -1.267,0.05 -1.9,0.05 h -1.15 l -15.5,-2.05 -6,-1.25 c -0.767,-0.233 -1.35,-0.434 -1.75,-0.601 -0.367,-0.133 -0.717,-0.316 -1.05,-0.55 -0.3,-0.2 -0.583,-0.45 -0.85,-0.75 -0.3,-0.3 -0.567,-0.65 -0.8,-1.05 -0.267,-0.4 -0.5,-0.851 -0.7,-1.351 -0.233,-0.533 -0.45,-1.133 -0.65,-1.8 -0.233,-0.666 -0.45,-1.416 -0.65,-2.25 -0.233,-0.833 -0.45,-1.75 -0.65,-2.75 -0.2,-1.033 -0.417,-2.166 -0.65,-3.399 l -2.55,-10.9 c -0.2,-0.467 -0.383,-1.184 -0.55,-2.15 -0.167,-1 -0.317,-2.233 -0.45,-3.699 -0.167,-1.467 -0.316,-3.184 -0.45,-5.15 -0.134,-1.966 -0.267,-4.15 -0.4,-6.55 -0.1,-1.667 -0.167,-3.334 -0.2,-5 -0.067,-1.7 -0.117,-3.384 -0.15,-5.05 -0.033,-1.7 -0.05,-3.417 -0.05,-5.15 0,-1.733 0.017,-3.45 0.05,-5.15 0.033,-1.733 0.083,-3.466 0.15,-5.199 0.033,-1.767 0.1,-3.517 0.2,-5.25 0.066,-1.733 0.167,-3.467 0.3,-5.2 0.1,-1.767 0.217,-3.5 0.35,-5.2 0.133,-1.733 0.283,-3.45 0.45,-5.15 0.167,-1.733 0.35,-3.434 0.55,-5.1 0.2,-1.7 0.4,-3.367 0.6,-5 0.233,-1.667 0.466,-3.317 0.7,-4.95 l 4.55,-33.55 -3.3,-8.75 -4.1,-14.95 -3.25,-28.95 c -0.1,-0.833 -0.2,-1.383 -0.3,-1.65 -0.167,-0.6 -0.317,-1.25 -0.45,-1.95 -0.167,-0.7 -0.283,-1.433 -0.35,-2.2 -0.133,-0.8 -0.217,-1.633 -0.25,-2.5 -0.067,-0.867 -0.1,-1.733 -0.1,-2.6 -0.033,-0.9 -0.033,-1.8 0,-2.7 0.033,-0.9 0.083,-1.767 0.15,-2.6 0.067,-0.9 0.167,-1.75 0.3,-2.55 0.1,-0.8 0.233,-1.567 0.4,-2.3 0.2,-0.9 0.417,-1.733 0.65,-2.5 0.233,-0.8 0.5,-1.517 0.8,-2.15 0.267,-0.633 0.55,-1.217 0.85,-1.75 0.3,-0.533 0.617,-0.983 0.95,-1.35 0.667,-0.8 1.4,-1.333 2.2,-1.6 0.333,-0.1 0.684,-0.15 1.05,-0.15 0.433,0 0.883,0.083 1.35,0.25 0.833,0.3 1.7,0.9 2.6,1.8 l 1.55,1.5 0.55,0.45 0.15,0.1 0.1,0.05 h 0.05 V 59.4 l 0.1,-0.1 0.25,-0.55 1.4,-3.85 4.35,-8.55 c 0.3,-0.467 0.55,-0.783 0.75,-0.95 0.133,-0.133 0.317,-0.25 0.55,-0.35 0.233,-0.133 0.517,-0.267 0.85,-0.4 0.267,-0.133 0.567,-0.233 0.9,-0.3 0.3,-0.1 0.617,-0.184 0.95,-0.25 0.434,-0.1 0.817,-0.15 1.15,-0.15 0.367,0 0.7,0.066 1,0.2 0.267,0.1 0.55,0.267 0.85,0.5 0.3,0.233 0.633,0.55 1,0.95 0.4,0.433 0.717,0.767 0.95,1 0.233,0.2 0.433,0.333 0.6,0.4 h 0.1 c 0.1,0 0.2,-0.05 0.3,-0.15 0.133,-0.133 0.267,-0.35 0.4,-0.65 0.1,-0.167 0.2,-0.383 0.3,-0.65 l 0.65,-1.85 0.2,-0.9 c 0.1,-0.466 0.25,-0.917 0.45,-1.35 0.167,-0.467 0.4,-0.917 0.7,-1.35 0.233,-0.467 0.517,-0.883 0.85,-1.25 0.333,-0.434 0.684,-0.8 1.05,-1.1 0.333,-0.333 0.683,-0.617 1.05,-0.85 0.333,-0.233 0.683,-0.4 1.05,-0.5 0.267,-0.066 0.55,-0.1 0.85,-0.1 0.167,0 0.35,0.017 0.55,0.05 0.433,0.1 0.85,0.283 1.25,0.55 0.4,0.3 0.767,0.684 1.1,1.15 0.167,0.2 0.317,0.434 0.45,0.7 0.133,0.266 0.267,0.55 0.4,0.85 0.1,0.3 0.2,0.617 0.3,0.95 0.066,0.3 0.117,0.633 0.15,1 l 0.35,1.9 c 0.1,0.433 0.233,0.716 0.4,0.85 0.066,0.067 0.15,0.1 0.25,0.1 0.133,-0.033 0.283,-0.083 0.45,-0.15 0.3,-0.167 0.7,-0.433 1.2,-0.8 0.4,-0.3 0.817,-0.534 1.25,-0.7 0.433,-0.166 0.867,-0.267 1.3,-0.3 h 0.15 c 0.367,0 0.733,0.066 1.1,0.2 0.4,0.1 0.784,0.283 1.15,0.55 0.367,0.267 0.716,0.617 1.05,1.05 0.3,0.367 0.583,0.817 0.85,1.35 0.267,0.467 0.5,1 0.7,1.6 0.2,0.6 0.383,1.283 0.55,2.05 0.167,0.733 0.3,1.567 0.4,2.5 0.1,0.9 0.183,1.933 0.25,3.1 0.033,1.133 0.067,2.383 0.1,3.75 0.033,1.333 0.033,2.816 0,4.45 0,1.633 -0.033,3.4 -0.1,5.3 V 82.8 c 0.033,0.667 0.1,1.284 0.2,1.85 l 0.2,1.65 c 0.067,0.534 0.15,1.067 0.25,1.6 l 0.95,3.95 c 0.167,0.533 0.316,0.983 0.45,1.35 0.1,0.333 0.2,0.55 0.3,0.65 l 0.1,0.05 c 0.066,-0.033 0.167,-0.066 0.3,-0.1 0.233,-0.1 0.517,-0.25 0.85,-0.45 0.333,-0.233 0.733,-0.517 1.2,-0.85 0.467,-0.367 0.967,-0.783 1.5,-1.25 l 1.7,-1.5 c 0.667,-0.633 1.333,-1.217 2,-1.75 0.633,-0.533 1.267,-1.017 1.9,-1.45 0.6,-0.433 1.217,-0.833 1.85,-1.2 0.6,-0.367 1.2,-0.684 1.8,-0.95 0.6,-0.267 1.217,-0.483 1.85,-0.65 0.6,-0.2 1.233,-0.367 1.9,-0.5 0.6,-0.133 1.25,-0.217 1.95,-0.25 0.667,-0.067 1.367,-0.1 2.1,-0.1 h 0.05 c 0.767,0 1.467,0.05 2.1,0.15 0.633,0.1 1.233,0.25 1.8,0.45 1.067,0.367 1.917,0.883 2.55,1.55 0.633,0.667 1.05,1.45 1.25,2.35 0.066,0.4 0.1,0.833 0.1,1.3 -0.034,0.466 -0.133,0.95 -0.3,1.45 -0.167,0.467 -0.383,0.95 -0.65,1.45 -0.267,0.467 -0.6,0.95 -1,1.45 -0.8,0.967 -1.867,1.9 -3.2,2.8 -0.267,0.167 -0.55,0.383 -0.85,0.65 -0.333,0.267 -0.65,0.567 -0.95,0.9 -0.333,0.333 -0.667,0.7 -1,1.1 -0.367,0.4 -0.717,0.833 -1.05,1.3 -0.333,0.434 -0.684,0.9 -1.05,1.4 -0.367,0.466 -0.717,0.966 -1.05,1.5 -0.333,0.5 -0.667,1.033 -1,1.6 -0.367,0.534 -0.7,1.083 -1,1.65 -0.3,0.533 -0.6,1.083 -0.9,1.65 -0.3,0.533 -0.567,1.083 -0.8,1.65 -0.267,0.533 -0.5,1.067 -0.7,1.6 -0.233,0.5 -0.434,1.017 -0.6,1.55 -0.167,0.434 -0.333,0.867 -0.5,1.3 -0.2,0.4 -0.383,0.8 -0.55,1.2 -0.2,0.4 -0.4,0.8 -0.6,1.2 -0.233,0.4 -0.467,0.8 -0.7,1.2 -0.267,0.4 -0.533,0.8 -0.8,1.2 -0.3,0.433 -0.617,0.867 -0.95,1.3 -0.333,0.4 -0.683,0.833 -1.05,1.3 l -4.95,5.8 c -0.467,0.567 -0.867,1.083 -1.2,1.55 -0.367,0.466 -0.667,0.933 -0.9,1.4 -0.267,0.433 -0.5,0.9 -0.7,1.4 l -2.05,6.05 c -0.3,1 -0.583,2.083 -0.85,3.25 -0.3,1.167 -0.55,2.383 -0.75,3.65 -0.233,1.267 -0.45,2.617 -0.65,4.05 -0.2,1.433 -0.367,2.933 -0.5,4.5 -0.167,1.533 -0.3,3.183 -0.4,4.95 -0.133,1.733 -0.233,3.55 -0.3,5.45 l -0.15,23.05 0.55,4.8 1.3,5.5 1.85,5.6 c 0.133,0.301 0.25,0.517 0.35,0.65 0.3,0.5 0.617,0.833 0.95,1 0.133,0.066 0.3,0.1 0.5,0.1 0.233,0 0.517,-0.05 0.85,-0.149 0.267,-0.134 0.583,-0.3 0.95,-0.5 0.367,-0.233 0.783,-0.517 1.25,-0.851 0.433,-0.366 0.967,-0.783 1.6,-1.25 l 1.95,-1.6 c 0.367,-0.3 0.767,-0.6 1.2,-0.9 l 5.3,-3.4 c 0.4,-0.233 0.783,-0.434 1.15,-0.6 0.467,-0.233 0.934,-0.467 1.4,-0.7 0.433,-0.233 0.833,-0.467 1.2,-0.7 0.367,-0.267 0.717,-0.534 1.05,-0.8 0.3,-0.3 0.6,-0.617 0.9,-0.95 0.3,-0.333 0.583,-0.7 0.85,-1.1 0.267,-0.4 0.55,-0.833 0.85,-1.3 0.233,-0.5 0.5,-1.033 0.8,-1.6 0.267,-0.567 0.55,-1.184 0.85,-1.85 0.133,-0.333 0.3,-0.684 0.5,-1.05 l 0.6,-1.15 2.25,-3.45 c 0.267,-0.367 0.517,-0.684 0.75,-0.95 0.267,-0.367 0.55,-0.7 0.85,-1 l 0.9,-1 c 0.3,-0.3 0.65,-0.633 1.05,-1 0.367,-0.367 0.783,-0.733 1.25,-1.1 l 9.4,-7.25 c 0.8,-0.633 1.65,-1.233 2.55,-1.8 0.867,-0.567 1.75,-1.1 2.65,-1.6 0.9,-0.5 1.833,-0.967 2.8,-1.4 0.967,-0.434 1.95,-0.833 2.95,-1.2 1.033,-0.4 2.1,-0.767 3.2,-1.1 1.1,-0.333 2.25,-0.633 3.45,-0.9 1.167,-0.3 2.4,-0.566 3.7,-0.8 1.267,-0.233 2.6,-0.45 4,-0.65 l 3.55,-0.7 c 0.533,-0.167 1.083,-0.35 1.65,-0.55 l 1.75,-0.8 23.3,-14.3 c 0.567,-0.3 1.067,-0.533 1.5,-0.7 l 2.45,-1.1 c 0.367,-0.2 0.717,-0.4 1.05,-0.6 0.333,-0.2 0.633,-0.417 0.9,-0.65 0.267,-0.2 0.533,-0.417 0.8,-0.65 0.267,-0.267 0.5,-0.517 0.7,-0.75 0.2,-0.267 0.4,-0.55 0.6,-0.85 0.167,-0.333 0.333,-0.65 0.5,-0.95 0.133,-0.333 0.267,-0.684 0.4,-1.05 0.133,-0.4 0.25,-0.8 0.35,-1.2 0.1,-0.434 0.2,-0.883 0.3,-1.35 0.066,-0.467 0.133,-0.967 0.2,-1.5 l 0.15,-1.65 0.1,-10.5 c -0.033,-0.567 -0.066,-1.1 -0.1,-1.6 -0.067,-0.533 -0.133,-1.017 -0.2,-1.45 -0.067,-0.466 -0.15,-0.933 -0.25,-1.4 -0.133,-0.5 -0.267,-0.983 -0.4,-1.45 l -1.15,-3.35 c -0.333,-0.934 -0.684,-1.817 -1.05,-2.65 -0.4,-0.867 -0.783,-1.65 -1.15,-2.35 -0.4,-0.733 -0.8,-1.383 -1.2,-1.95 -0.4,-0.566 -0.783,-1.05 -1.15,-1.45 -0.333,-0.367 -0.667,-0.767 -1,-1.2 -0.333,-0.467 -0.65,-0.967 -0.95,-1.5 -0.3,-0.5 -0.55,-1 -0.75,-1.5 -0.233,-0.533 -0.4,-1.033 -0.5,-1.5 -0.133,-0.433 -0.3,-0.917 -0.5,-1.45 l -1.35,-3.25 c -0.233,-0.5 -0.467,-0.95 -0.7,-1.35 -0.267,-0.434 -0.5,-0.917 -0.7,-1.45 l -0.95,-2.5 -0.8,-4 c -0.133,-0.5 -0.284,-1 -0.45,-1.5 -0.166,-0.5 -0.333,-0.95 -0.5,-1.35 -0.2,-0.4 -0.383,-0.733 -0.55,-1 -0.2,-0.267 -0.383,-0.566 -0.55,-0.9 -0.2,-0.367 -0.367,-0.75 -0.5,-1.15 -0.167,-0.4 -0.316,-0.783 -0.45,-1.15 -0.133,-0.4 -0.217,-0.75 -0.25,-1.05 -0.067,-0.333 -0.184,-0.75 -0.35,-1.25 l -2.15,-5.35 c -0.333,-0.667 -0.617,-1.3 -0.85,-1.9 -0.233,-0.667 -0.434,-1.283 -0.6,-1.85 -0.167,-0.633 -0.3,-1.25 -0.4,-1.85 -0.1,-0.6 -0.15,-1.2 -0.15,-1.8 0,-0.6 0.033,-1.217 0.1,-1.85 0.067,-0.667 0.184,-1.333 0.35,-2 0.167,-0.667 0.367,-1.367 0.6,-2.1 0.2,-0.767 0.467,-1.55 0.8,-2.35 l 1.25,-3.85 c 0.067,-0.4 0.133,-0.783 0.2,-1.15 0.067,-0.367 0.117,-0.75 0.15,-1.15 l 0.1,-3.9 c -0.033,-0.933 -0.017,-1.816 0.05,-2.65 0.034,-0.833 0.117,-1.617 0.25,-2.35 0.267,-1.433 0.733,-2.716 1.4,-3.85 0.633,-1.133 1.517,-2.15 2.65,-3.05 0.533,-0.467 1.15,-0.933 1.85,-1.4 0.7,-0.433 1.466,-0.867 2.3,-1.3 0.3,-0.167 0.6,-0.333 0.9,-0.5 0.3,-0.2 0.583,-0.383 0.85,-0.55 0.467,-0.367 0.917,-0.8 1.35,-1.3 0.233,-0.267 0.467,-0.55 0.7,-0.85 0.2,-0.3 0.417,-0.633 0.65,-1 l 3.15,-5.55 c 0.233,-0.4 0.467,-0.75 0.7,-1.05 0.2,-0.3 0.417,-0.566 0.65,-0.8 0.4,-0.5 0.85,-0.917 1.35,-1.25 0.267,-0.2 0.55,-0.383 0.85,-0.55 0.267,-0.167 0.567,-0.316 0.9,-0.45 0.5,-0.267 1.05,-0.5 1.65,-0.7 l 1.75,-0.5 2.7,-0.4 h 0.899 c 0.5,-0.033 0.983,-0.05 1.45,-0.05 0.467,-0.034 0.884,-0.083 1.25,-0.15 0.4,-0.066 0.783,-0.133 1.15,-0.2 0.333,-0.1 0.683,-0.217 1.05,-0.35 0.3,-0.133 0.633,-0.3 1,-0.5 0.333,-0.2 0.684,-0.417 1.05,-0.65 0.333,-0.233 0.7,-0.517 1.1,-0.85 0.4,-0.333 0.817,-0.683 1.25,-1.05 0.334,-0.3 0.7,-0.583 1.101,-0.85 0.366,-0.3 0.75,-0.583 1.149,-0.85 0.367,-0.267 0.767,-0.517 1.2,-0.75 0.434,-0.267 0.867,-0.517 1.3,-0.75 0.434,-0.233 0.9,-0.45 1.4,-0.65 0.434,-0.233 0.9,-0.434 1.4,-0.6 0.466,-0.2 0.949,-0.383 1.449,-0.55 l 1.45,-0.5 c 0.467,-0.133 0.967,-0.267 1.5,-0.4 0.5,-0.133 1,-0.233 1.5,-0.3 0.5,-0.1 1,-0.183 1.5,-0.25 0.5,-0.1 1,-0.167 1.5,-0.2 L 309.8,0 c 0.5,0 1.017,0.017 1.55,0.05 0.534,0.034 1.051,0.083 1.551,0.15 0.833,0.1 1.649,0.25 2.449,0.45 0.834,0.2 1.634,0.467 2.4,0.8 0.8,0.333 1.583,0.716 2.35,1.15 0.767,0.433 1.534,0.917 2.301,1.45 0.767,0.534 1.533,1.133 2.3,1.8 0.767,0.633 1.533,1.35 2.3,2.15 2.967,2.933 5.25,4.583 6.85,4.95 0.7,0.133 1.351,0.3 1.95,0.5 0.634,0.2 1.217,0.45 1.75,0.75 0.533,0.233 1.066,0.533 1.601,0.9 0.5,0.367 0.966,0.767 1.399,1.2 0.434,0.4 0.867,0.883 1.3,1.45 0.434,0.533 0.851,1.117 1.25,1.75 0.4,0.633 0.801,1.35 1.2,2.15 0.399,0.767 0.799,1.6 1.199,2.5 z m 34,272.5 c -0.2,0.533 -0.417,1.166 -0.65,1.899 -0.267,0.733 -0.533,1.566 -0.8,2.5 l -2.35,9.2 -0.5,3.95 -0.05,1.25 0.6,6.8 4.55,28.751 0.3,4.05 c 0.034,0.533 0.051,0.983 0.051,1.351 l -0.301,3 -0.399,1.899 -0.25,0.8 c -0.233,0.534 -0.367,1.051 -0.4,1.551 -0.033,0.233 -0.05,0.5 -0.05,0.8 0,0.267 0.033,0.583 0.1,0.95 0.067,0.333 0.15,0.716 0.25,1.149 0.134,0.434 0.284,0.934 0.45,1.5 l 1.95,5.8 2.25,9.4 3.45,36.2 0.6,2.649 c 0.233,0.601 0.483,0.917 0.75,0.95 0.267,0 0.55,-0.283 0.851,-0.85 0.166,-0.334 0.35,-0.717 0.55,-1.15 0.166,-0.467 0.35,-1.017 0.55,-1.649 0.1,-0.367 0.217,-0.767 0.35,-1.2 0.067,-0.467 0.15,-0.983 0.25,-1.55 0.101,-0.567 0.184,-1.217 0.25,-1.95 0.067,-0.767 0.134,-1.601 0.2,-2.5 l 0.95,-35.9 -1.8,-16.399 -0.75,-13.25 -0.7,-27.351 c -0.1,-0.533 -0.184,-0.983 -0.25,-1.35 -0.066,-0.367 -0.15,-0.684 -0.25,-0.95 -0.1,-0.266 -0.2,-0.483 -0.3,-0.65 -0.167,-0.233 -0.384,-0.666 -0.65,-1.3 l -5.35,-16.85 c -0.134,-0.634 -0.2,-1.084 -0.2,-1.351 0,-0.166 -0.017,-0.35 -0.05,-0.55 l -0.351,-1.2 c -0.1,-0.199 -0.199,-0.366 -0.3,-0.5 -0.233,-0.399 -0.467,-0.6 -0.7,-0.6 l -0.149,0.05 c -0.334,0.066 -0.684,0.483 -1.05,1.25 -0.202,0.368 -0.419,0.817 -0.652,1.351 z M 154.55,53.2 c -0.033,-0.8 -0.083,-1.35 -0.15,-1.65 l -0.1,-0.15 -0.05,-0.05 c -0.067,0 -0.1,0.033 -0.1,0.1 -0.167,0.167 -0.316,0.583 -0.45,1.25 l -0.95,10.15 0.1,1 0.05,0.2 0.1,0.05 0.05,0.05 c 0.067,-0.033 0.167,-0.1 0.3,-0.2 0.1,-0.1 0.2,-0.284 0.3,-0.55 0.1,-0.3 0.2,-0.667 0.3,-1.1 l 0.25,-1.55 0.35,-7.55 z m -15.65,13.2 -0.1,0.05 -0.1,0.15 -0.15,0.35 c -0.1,0.2 -0.167,0.45 -0.2,0.75 -0.033,0.267 -0.05,0.55 -0.05,0.85 -0.033,0.267 -0.017,0.55 0.05,0.85 0,0.267 0.033,0.5 0.1,0.7 0.033,0.233 0.1,0.417 0.2,0.55 0.067,0.1 0.15,0.15 0.25,0.15 l 0.05,-0.05 v -0.1 l 0.1,-0.6 0.05,-1.85 c -0.033,-0.7 -0.067,-1.184 -0.1,-1.45 l -0.05,-0.25 -0.05,-0.1 z"
   id="path3"
   style="fill-rule:evenodd" />
    
</svg>