<?xml version="1.0" encoding="UTF-8" standalone="no"?>
<!-- Created with Inkscape (http://www.inkscape.org/) -->

<svg
   xmlns:svg="http://www.w3.org/2000/svg"
   xmlns="http://www.w3.org/2000/svg"
   version="1.1"
   width="987.77814"
   height="1275.2189"
   viewBox="0 0 987.77814 1275.2189"
   id="svg11830"
   xml:space="preserve"
   style="fill-rule:evenodd;enable-background:new"><defs
     id="defs11918" /><g
     transform="translate(-1647.198,-543.05257)"
     id="g11864"
     style="display:inline" /><g
     transform="translate(-1647.198,-543.05257)"
     id="g11898"
     style="display:inline" /><g
     transform="translate(-1647.198,-543.05257)"
     id="g11902"
     style="display:inline"><g
       transform="translate(-116.49721,0)"
       id="g12469"
       style="fill:none;stroke:#808080;stroke-opacity:1"><path
         d="m 2587.736,996.4608 11.4305,23.5181 c -4.5156,-7.8729 -4.378,-13.695 -6.7551,-16.684 -14.5665,-18.3168 -8.8749,-32.503 -15.0006,-39.7714 l -1.9381,-21.62826 c 7.9949,34.43986 -15.8528,53.27706 -12.9624,78.54346 2.0774,18.1595 11.1393,27.3994 17.1222,67.1293 6.4288,12.2097 5.7353,7.4391 5.5086,11.3857 4.4894,-43.939 9.8804,-72.0104 2.5949,-102.4929 z m -107.5464,231.1779 c 10e-5,0 0,0 0,0 z m -7.2723,199.2243 c 0,0 0.4079,0.5769 0,0 z m 3.4791,214.6054 c 20.2309,34.5937 20.1613,49.0042 8.9495,55.0592 -9.1734,5.0463 -17.5879,5.986 -27.725,11.7889 z m 179.0992,47.2128 c -10.8018,34.3945 -7.0086,35.2575 24.0302,45.9977 z m -76.6382,-877.10382 c -2.9906,-18.28821 -10.464,-38.16106 -9.4075,-62.08635 0.9865,-22.33968 2.7249,-44.91142 -1.5164,-64.80407 -4.151,-19.46921 -15.2525,-32.51258 -25.5037,-47.93913 -11.8844,-17.88431 -21.0991,-36.21378 -48.5896,-35.24476 -14.4713,0.5101 -34.1032,11.238 -37.4193,33.22968 0,0 1.2185,-11.90486 4.7453,-17.86779 -2.9089,-4.49395 -31.7501,11.35017 -44.675,38.60033 -5.8607,12.35628 -2.4338,27.1787 -7.4587,45.6086 -6.2418,22.89303 26.4884,54.95872 7.4564,103.18749 -1.8602,4.71401 -2.099,12.22433 -2.5067,14.82949 0,0 22.5153,-11.61947 35.3855,-29.00297 -9.3386,14.53249 -24.192,24.20662 -39.8749,31.05521 -32.8632,9.39878 -49.8204,27.1866 -51.2112,64.50816 0.3147,45.33811 1.505,91.92943 -11.8115,117.04623 -11.2734,24.3328 -10.6674,47.2019 -12.2202,72.6357 -3.2885,53.8567 11.8385,117.5218 -11.32,146.0965 -4.2908,5.2942 -5.4009,11.6164 -1.3485,16.7075 8.0978,12.2126 10.6616,25.7858 22.1707,36.6278 4.7383,4.4637 12.949,12.9001 18.0222,16.9788 2.6453,-7.6791 -2.7089,-14.3259 -5.9282,-25.4525 -4.0227,-193.0215 32.2155,-229.4875 52.1423,-298.04373 9.1936,52.97373 -10.6811,64.51063 -29.7055,89.67713 l 0,0 c -45.8244,106.3579 -19.1772,272.026 27.2647,352.0246 l -9.0932,-17.1862 c 0.658,30.6576 -1.528,18.6533 4.4923,38.7786 l 0,0 c -20.2698,37.2272 14.5961,128.5586 27.0263,194.6988 3.85,20.4858 7.7917,30.1487 4.6468,52.2361 l 1.1373,-13.9009 c -9.8469,7.735 -14.3805,25.4794 -22.0329,32.173 -9.7374,8.5174 -21.8187,12.0134 -25.9713,20.7077 -1.1158,7.4375 0.8878,13.6651 1.2774,22.5428 7.4912,-6.2646 26.2382,-23.01 0,0 -3.1354,4.5682 -2.7472,7.593 -0.3953,10.3509 l 5.6786,4.6171 c -7.3406,1.9938 -7.7316,-3.118 -5.6839,-4.6171 43.3275,-26.9678 6.0774,-10.7876 5.6839,4.6171 1.8772,15.8563 19.1277,6.1555 30.346,-1.9304 12.0147,2.1339 19.3885,-10.0917 25.5458,-27.7214 35.4468,-57.7805 29.9258,-132.0611 31.6676,-198.2277 0.6282,-13.0031 3.0152,-14.3141 4.3155,-29.9698 1.6579,-19.9608 -2.319,-45.0232 -7.5094,-53.8593 -1.6173,-2.7533 0.011,-12.5987 -3.3539,-15.8187 -1.9475,-1.8636 -0.9335,-10.9818 3.024,-19.5747 7.7632,-16.856 -0.8693,-53.6334 -1.7344,-67.8234 -1.3581,-22.2734 8.4248,-52.4819 5.5749,-112.4031 2.688,19.8423 40.2832,99.9393 43.051,110.1749 13.0466,48.248 19.6991,75.7568 31.6447,99.9308 6.0146,12.1719 15.8129,26.9316 23.1825,39.4004 3.1088,5.2602 3.7154,6.8928 6.9296,14.6342 l -6.9296,-14.6342 c -19.8285,49.532 30.3599,99.8948 51.1807,146.3712 12.1194,26.4426 20.6612,55.9788 35.947,85.9956 l 6.5639,9.1609 c 6.4322,7.6218 19.0508,51.9102 31.3899,54.9061 10.9963,2.6699 13.5186,10.069 21.499,14.4346 9.5092,5.202 26.9956,-0.9055 21.1821,-12.0374 -1.0867,-2.0809 -0.6516,-5.0154 -0.2185,-6.3065 -28.2055,-12.701 -10.4642,-4.9148 0.218,6.3065 l -4.218,-6.3065 c 1.1451,-3.4135 9.1125,-3.601 6.1859,-8.1532 -12.758,-15.1636 -16.4325,-10.3307 0,0 0.1521,3.7011 0.2325,-1.8115 2e-4,0 0.7463,-7.3998 1.7974,-15.6148 0.312,-23.0039 -6.2038,-9.0718 -15.2919,-18.382 -26.466,-23.7579 l 6.5866,15.4789 c -10.9918,-30.273 -24.8538,-33.8097 -38.4726,-72.0382 -11.0468,-31.009 -9.7994,-158.8509 -45.4348,-193.2986 -2.5951,-6.1843 0.8046,-13.053 -3.6344,-20.5128 -0.8779,-4.643 -0.3512,-10.9226 -1.109,-14.9666 -3.8096,-20.3301 -10.8667,-33.8778 -11.4346,-68.3805 -0.4396,-26.7097 2.2093,-87.4828 -4.7613,-96.4839 -16.7875,8.9318 1.8677,2.862 2.9371,-8.301 0.4838,-6.5022 -2.4143,-13.0931 -3.7784,-13.8279 5.8153,-18.6011 2.976,-44.7604 -7.6968,-68.4429 l 2.6648,6.3945 c 8.2586,-17.4513 5.7767,-33.1297 10.9217,-50.3749 16.7038,-48.4704 16.241,-100.9138 6.4263,-138.8069 -12.5366,-53.06611 1.112,-115.41691 -19.9288,-145.92585 -2.3809,-3.45235 -8.4233,-14.23286 -12.1223,-17.75942 -7.6492,-7.29237 -15.0359,-10.57367 -26.7904,-17.63366"
         id="path11908"
         style="fill:#0b0b0b;fill-opacity:1;stroke:#808080;stroke-width:5.19999981;stroke-linecap:round;stroke-linejoin:round;stroke-miterlimit:4;stroke-opacity:1;stroke-dasharray:none;display:inline" /><path
         d="m 1817.8418,659.62899 6.3476,1.19086 z M 2121.4277,1758.35 c -5.0449,-3.9913 -8.0438,-7.0707 -11.3017,-9.0896 -15.4658,-9.5835 -10.2705,-13.1677 -4.1633,-40.6448 z M 2085.384,706.47723 c 0.8441,-0.91432 3.7044,-5.01754 4.7813,-9.23263 6.1747,-16.266 3.6652,-15.78125 5.5735,-22.78722 -11.5494,0.70874 18.3995,-8.29242 13.5398,-28.64439 13.089,-8.11248 20.5034,-33.71701 -2.3749,-54.4375 l 0.386,11.52556 c 0.123,-22.34107 -9.3475,-41.58559 -25.3076,-37.65707 l -1.1525,17.37635 c 0.9968,-6.1278 2.0056,-14.57411 1.1525,-17.37635 -4.9969,-16.41458 -34.827,-27.0349 -50.9761,-13.21937 -8.2474,7.05563 -10.14,10.52133 -18.4373,9.18381 -10.094,-1.62715 -15.8853,4.73472 -17.4609,12.16389 -2.1866,10.30921 -9.8398,8.43065 -15.0468,13.59271 -2.6554,2.63275 -5.5604,6.64146 -5.5734,11.03246 -0.014,4.21239 3.5244,9.44667 1.0945,12.0857 -8.9153,9.68224 -23.6181,35.78311 4.148,34.3606 7.66,10.2119 -2.9386,8.44844 1.1274,9.47761 -2.0553,6.08579 -1.0555,14.19917 4.9434,17.75666 l 16.4948,37.38565 c -0.065,19.29335 1.8943,36.63879 -7.2792,41.68509 -15.4975,7.26375 -31.6558,15.66837 -45.6147,28.20689 l -35.3784,7.48734 c -24.4649,14.13377 -36.7912,28.90283 -36.9303,42.41121 l 10.5643,-0.11726 c -16.5407,-3.71816 -46.5447,19.13856 -45.1837,33.10864 -4.3271,-27.47103 -14.691,-29.60596 -10.733,-71.49775 2.3879,-25.27361 3.0012,-49.45513 16.2818,-65.65754 9.2444,-8.09244 13.8932,-21.70182 17.6693,-29.17667 4.5818,-9.0698 11.0839,-13.87095 16.1845,-17.91556 8.2457,-12.25832 -15.076,-14.68388 -27.5692,1.90901 -4.0988,5.44386 -11.1239,7.71556 -17.2311,16.83402 -22.5569,6.08354 -27.8799,22.22272 -26.8139,35.42142 -0.8262,-4.7647 -3.7104,-9.44197 -4.9545,-11.55718 l 37.8961,-30.94212 c -9.8287,-22.5761 -1.9113,-46.2496 -4.141,-57.20801 1.4911,-16.2374 -1.9052,-22.88033 -7.334,-21.70341 -4.9215,1.06695 -3.2571,8.41103 -4.2194,19.57388 -0.7172,11.3266 -3.1752,10.86205 -3.3199,30.89415 -0.306,-0.98039 -1.6248,-0.30483 -4.2087,-0.78958 -1.7979,-12.62434 -1.339,-30.03875 -0.4123,-40.16969 0.1975,-2.15911 1.3754,-5.57048 2.3678,-9.51238 1.9922,-7.91351 -1.052,-10.31494 -5.6088,-9.38565 -3.6345,0.74122 -6.9298,12.47168 -9.1991,27.53257 -1.6456,10.92029 -2.8091,19.99829 -1.3819,32.69571 -2.5287,1.24529 -4.3773,1.41299 -6.0615,2.76353 -1.3717,-6.68388 -2.5258,-13.9475 -1.9978,-20.3067 1.6751,-16.8429 10.9539,-28.31403 2.5592,-32.04968 -12.7999,-5.69595 -20.0035,55.78955 -13.7308,59.62287 l -2.268,1.5321 c -9.0566,-23.59247 -3.6908,-44.11352 -9.7356,-44.17022 -7.7344,-0.0725 -12.4879,23.87787 -2.7405,52.10711 l 2.5282,-2.12517 -2.5282,2.12517 c -5.8433,4.9118 1.7036,49.88518 17.3063,71.76495 0.4761,1.01678 -5.5128,2.31793 -5.0299,3.33091 l 1.5654,-8.77752 c -9.2728,51.03526 -19.6318,155.23281 -6.8692,169.06571 l 3.3543,-14.68113 c -4.2427,4.45386 -4.7108,24.97224 -0.1039,36.82594 3.3991,8.74574 9.439,11.18075 23.1247,10.37357 14.0389,4.35543 29.5482,2.56671 52.364,-14.06949 43.4207,-7.72006 54.9051,-25.47613 67.4084,-54.43172 l -4.4966,9.9702 c 0.9179,29.45119 4.9807,59.12954 14.0378,88.60818 7.2677,20.33353 3.0316,46.81816 -3.2352,59.49346 -9.3708,18.9534 -5.251,37.0593 5.9286,41.1872 l -8.4582,-8.0351 c -4.9281,11.4768 -8.5171,24.3164 -6.4484,41.9567 2.9972,16.2573 -10.5297,38.2773 -10.5846,54.5246 -2.1958,47.7187 10.4292,90.4678 11.2855,138.1971 -1.7148,34.2964 10.3726,71.8834 30.0431,85.1462 l -14.3925,-15.9091 c -2.6097,20.7121 5.984,53.0906 21.9473,81.1766 l -8.0755,-15.9158 c -14.6404,36.4444 2.453,113.4755 24.693,206.8765 6.0117,27.4377 -1.0167,43.1848 -12.5342,64.2554 l 10.7126,-22.6388 c -16.3397,18.2231 -37.3447,43.7317 -47.1181,43.952 -10.6631,-1.1606 -16.5716,5.097 -14.9853,13.4033 -8.3279,3.3423 -8.0093,10.157 -5.0525,15.2185 22.9838,-12.3714 30.7769,-15.19 0,0 -2.1607,2.3761 -6.4178,7.5034 -0.605,12.1639 l 3.6869,8.6174 c -3.6869,-8.6174 27.529,-19.2868 32.3768,-22.0808 -10.6874,10.8141 -38.018,16.1293 -29.9931,26.0119 8.9446,10.2378 32.9049,5.5946 30.9756,-4.5753 15.9001,4.1889 29.2147,-0.8815 34.3537,-16.3492 10.6699,-7.4178 11.9636,-22.2363 11.9636,-22.2363 22.6697,-10.4602 59.5933,-4.0959 46.6163,-43.0208 -0.6791,-5.3135 -1.5312,-9.8129 -1.911,-15.0433 -0.1032,-1.4234 0.5912,-3.6181 0.3779,-5.0299 -6.0523,-40.0282 -8.0624,-69.7508 -10.4781,-104.5437 l 1.1185,15.5122 c 7.2003,-23.331 10.2408,-53.9227 9.6526,-73.2152 l -6.0858,15.3232 c 17.65,-36.7792 17.0459,-79.0189 -4.803,-114.8767 l -3.7606,41.5065 c -1.4589,-16.1743 -2.8508,-28.5294 5.021,-44.1382 3.7323,-7.4005 4.7282,-18.1225 5.6377,-26.2626 3.2595,-29.1738 2.7981,-54.1241 -0.6327,-89.6656 -0.1295,-1.3416 1.4449,-5.9044 1.4449,-5.9044 0,0 -0.9266,-2.4191 -0.6174,-3.7592 4.1868,-18.1435 5.0844,-35.3059 4.1977,-53.2757 l 2.2896,0.4388 c -1.9473,0.3228 -5.0929,-1.4438 -7.396,-1.4515 l 15.6452,0.1252 c -1.0756,17.2591 9.1728,36.0894 14.1947,55.3999 5.9706,39.6229 4.6411,86.4878 12.1078,121.1875 -0.072,21.3243 24.3206,53.1161 33.2713,86.4445 l -22.0435,-51.9042 c -10.291,38.5045 -10.665,78.3824 12.3378,118.7963 l -3.012,-5.52 c -2.1273,27.4099 5.2577,60.1301 14.3145,89.6088 l -1.2505,-37.8645 c 3.9631,31.4922 -3.9944,58.4726 -2.0725,91.9891 1.3115,17.4288 19.3821,10.093 15.9025,68.4169 -0.6312,10.5808 -0.8399,17.9961 11.3549,22.0991 1.6886,2.0373 4.3345,4.2488 4.4275,7.127 0.4597,14.2146 23.1061,19.5578 29.6978,6.8397 -12.6377,-15.1202 -11.1575,-17.2686 -5.8036,-0.2204 l 5.8036,0.2204 c 5.2753,6.3359 14.269,-4.068 9.6176,-7.9671 -27.4533,-34.1252 -5.3702,-1.4842 0,0 -11.3348,6.5562 10.445,-5.4075 11.6074,-12.009 3.688,-8.2534 -0.888,-13.8082 -3.921,-20.0163 -1.1831,-2.488 -2.4578,-7.311 -4.1662,-10.2437 -1.6808,-2.8851 -4.1042,-6.3402 -5.1762,-9.2306 -12.373,-26.8098 -18.6924,-49.4599 -30.0777,-47.2316 5.7722,-1.8987 8.6371,-5.5057 8.2421,-15.8264 -0.024,-0.6057 0.4984,-1.695 0.4233,-2.3426 -2.2844,-19.7153 2.3431,-32.1446 5.6778,-49.219 8.0926,-41.4359 17.1944,-80.3972 15.7645,-121.568 -0.1492,-4.2952 -1.663,-10.3082 -1.9397,-14.613 -1.5445,-24.0271 -6.1772,-42.4319 -15.7724,-65.5991 l -0.7256,4.7868 c 4.1873,-26.0244 5.0492,-56.7484 1.0889,-66.7608 l -6.8863,20.1885 c 0.7143,-13.5516 8.8978,-20.8507 14.5198,-36.2617 2.8485,-7.8085 3.6621,-14.7478 5.1784,-22.289 2.8207,-14.0279 5.7682,-28.0009 10.8834,-46.7113 5.6042,-16.8427 9.7979,-7.1412 13.9976,-14.2484 2.3874,-6.4571 2.7093,-7.9146 5.7203,-13.1902 4.2916,-7.5193 6.8785,-10.3952 7.6082,-15.7444 3.0745,-22.5366 2.8498,-41.6829 1.8872,-57.9335 l 0.4404,9.2654 c 5.3598,-12.3318 7.9414,-37.0532 10.752,-52.3932 4.225,-23.0586 8.2147,-36.6367 13.227,-57.6459 12.8057,-47.9062 -5.8055,-88.64981 -6.751,-109.97744 -3.004,-14.22647 4.7862,-69.39951 -12.0886,-97.30114 l -3.95,26.45136 c 3.1241,-21.31395 8.0528,-45.69377 4.5981,-65.34518 -2.0824,-11.84518 -9.9483,-29.21331 -21.9142,-42.36284 -11.9337,-13.11405 -23.8494,-23.34342 -57.052,-15.52062 l 10.4214,-1.97547 c -13.1635,-18.53905 -47.6077,-30.60321 -57.0699,-52.14685 l 2.6486,25.55797 c -2.0476,-4.43762 -2.8057,-17.99337 -2.6433,-32.42351 0.1377,-12.22124 -0.4817,-19.96843 2.3783,-25.76909 4.3617,-8.84647 7.3914,-15.69196 9.5293,-20.80186 m 63.1344,502.95627 c -6.0938,-3.0669 0.2838,-90.6002 -19.2556,-92.1919 10.3182,-6.8233 7.5101,-36.538 0.9976,-57.7572 -6.1909,-20.1713 -0.7749,-35.93798 10.408,-61.13255 l -1.2485,-28.54362 c 0.9528,11.02388 -2.5363,20.42426 1.2483,28.54362 7.26,4.60138 3.6699,27.0879 14.8096,42.35735 11.8006,12.6266 18.7879,16.5974 16.2559,34.272 l -10.2897,-28.0725 c -7.6135,8.8201 -4.5293,52.0229 0.455,82.5031 -2.0944,21.023 -6.2937,72.013 -13.3806,80.0217 z m 20.7024,105.6719 c 5.232,-3.1669 -3.2838,3.6269 0,0 m -377.42,-620.3976 c -4.298,1.26655 -5.9311,1.49961 -9.5059,3.94324 z m -20.4498,9.69925 -7.6525,5.08396 z m 141.5361,1100.54465 c 10.1921,-6.7369 -6.8329,2.3666 0,0 z"
         id="path11914"
         style="fill:#000000;fill-opacity:1;stroke:#808080;stroke-width:5.19999981;stroke-linecap:round;stroke-linejoin:round;stroke-miterlimit:4;stroke-opacity:1;stroke-dasharray:none;display:inline" /></g></g></svg>