<?xml version="1.0" encoding="UTF-8" standalone="no"?>
<!-- Created with Inkscape (http://www.inkscape.org/) -->

<svg
   xmlns:svg="http://www.w3.org/2000/svg"
   xmlns="http://www.w3.org/2000/svg"
   version="1.2"
   width="394.349"
   height="208.634"
   viewBox="2.436 3.02 394.349 208.634"
   id="svg2"
   xml:space="preserve"
   style="overflow:inherit"><defs
   id="defs15" />

<g
   id="layer1">
	<path
   d="m 328.003,122.881 c 0,2.255 -0.677,9.74 -1.011,11.071 -0.332,1.331 -2.604,3.882 -1.515,6.062 0.983,1.967 1.365,4.396 3.03,6.061 1.93,1.93 5.623,3.4 4.041,6.566 -2.237,4.474 -1.158,-1.011 -3.535,-1.011 -2.719,0 -3.984,1.791 -4.547,4.041 -0.535,2.142 -1.414,5.756 -3.029,2.524 -0.481,-0.961 -2.254,-5.635 -3.031,-2.524 -0.177,0.708 -3.035,8.242 -5.051,5.556 -0.063,-0.085 -2.818,-6.726 -3.03,-6.566 -0.823,0.617 -4.026,4.546 -4.546,4.546 -3.737,0 -3.03,-1.029 -3.03,-4.546 0,-3.74 -2.439,-0.849 -1.515,-4.545 0.251,-1.006 1.963,-5.78 2.525,-6.062 1.762,-0.881 2.742,-1.948 5.051,-2.525 2.411,-0.603 1.321,-6.448 0.02,-9.051"
   id="path5542"
   style="stroke:#000000;stroke-width:2" />
	<path
   d="m 297.214,44.554 2.095,-0.736 2.281,-1.125 C 316.139,32.442 330.727,22.2 346.297,13.504 357.074,6.863 372.49,-1.63 383.562,9.199 c 8.533,7.997 17.688,26.514 8.191,35.985 -4.8,-10.172 -3.001,-28.138 -19.129,-29.603 -12.481,2.279 -24.141,9.821 -35.659,15.65 -10.372,5.802 -24.043,13.96 -23.609,27.445"
   id="path5552"
   style="stroke:#000000;stroke-width:2" />
	<path
   d="m 142.57,160.553 c -1.049,1.232 -8.151,8.348 -8.699,9.443 -1.312,2.621 -4.318,4.369 -6.546,6.04 -1.993,1.495 -3.43,1.915 -5.051,3.536 -1.278,1.277 -3.655,2.14 -5.556,4.04 -1.139,1.139 0.311,3.823 -0.546,5.535 -0.015,0.03 -1.771,6.442 -2.021,6.566 -3.283,1.642 -2.762,-1.011 -6.061,-1.011 -2.263,0 -2.319,0.805 -4.041,2.525 -0.033,0.033 -5.492,4.674 -6.565,2.525 -1.131,-2.261 -1.105,-3.03 -4.041,-3.03 -4.075,0 -3.34,0.734 -2.525,-2.525 0.278,-1.112 2.051,-6.03 1.011,-7.071 -1.089,-1.088 -4.719,-3.264 -1.516,-4.545 1.768,-0.707 4.561,-1.531 6.566,-3.535 0.943,-0.943 6.365,-3.669 7.535,-4.547 1.557,-1.167 3.58,-3.12 4.546,-5.051 1.094,-2.188 2.88,-3.945 3.535,-6.565 0.587,-2.346 2,-5.187 2,-8.081 0,-2.459 0.037,-8.904 -0.505,-11.071"
   id="path5564"
   style="stroke:#000000;stroke-width:2" />
	<path
   d="m 78.939,85.172 c -1.34,-1.064 -5.516,-8.431 -5.516,-9.788 0,-2.704 0.337,-3.219 1.516,-5.576 1.021,-2.042 1.301,-4.582 2.546,-7.071 1.118,-2.237 4.419,-3.534 5.051,-6.061 0.631,-2.526 0.505,-5.292 0.505,-8.081 0,-1.469 -0.594,-7.769 1.01,-6.566 2.906,2.18 4.417,4.71 6.566,7.576 1.67,2.227 5.17,5.289 6.566,8.081 1.396,2.793 4.537,6.308 7.576,8.586 1.439,1.081 7.049,4.114 8.755,4.992"
   id="path5579"
   style="stroke:#000000;stroke-width:2" />
	<path
   d="m 180.521,175.43 c 1.687,0.421 2.733,13.656 2.505,14.566 -0.52,2.079 -4.373,5.207 -6.04,6.04 -2.057,1.028 -3.431,1.515 -6.062,1.515 -1.758,0 -2.732,3.238 -3.535,4.041 -2.983,2.983 2.473,3.27 3.535,3.535 2.287,0.572 2.694,1.727 5.557,1.011 2.617,-0.655 3.508,2.497 4.545,3.535 2.467,2.466 4.188,-0.293 5.051,-2.021 1.326,-2.65 0.903,-3.03 4.546,-3.03 1.667,0 3.104,2.31 4.546,3.03 2.975,1.487 3.564,0.981 5.556,-1.01 1.201,-1.201 -0.505,-6.631 -0.505,-8.081 0,-2.303 2.392,-3.773 3.535,-6.062 1.225,-2.447 3.153,-3.658 5.557,-6.061 2.9,-2.9 5.537,-4.279 8.586,-6.566 2.877,-2.156 10.177,-10.033 11.303,-12.293"
   id="path5599"
   style="stroke:#000000;stroke-width:2" />
	
		<path
   d="m 185.416,179.641 c -13.163,1.709 -24.219,1.587 -36.125,0.799 -17.898,-1.559 -33.947,-7.834 -48.202,-16.043 C 90.077,158.681 83.104,147.599 68.97,146.202 56.885,143.587 52.401,142.432 44.493,133.008 37.508,120.111 40.395,110.786 50.922,104.215 59.888,96.967 64.91,90.681 72.175,83.03 83.608,76.202 97.731,71.504 111.25,69.759 c 13.879,7.033 29.846,5.548 44.336,1.649 18.798,-2.478 33.123,-16.285 44.426,-30.487 12.855,-7.862 28.828,-6.864 43.139,-4.448 18.443,6.54 38.979,1.096 57.094,8.102 13.05,8.021 17.984,22.451 26.282,34.692 11.093,10.029 6.951,23.553 3.79,36.151 -0.257,14.867 -18.041,19.078 -29.561,20.037 -13.62,6.131 -23.773,16.091 -38.314,20.826 -12.24,7.005 -27.556,7.189 -39.056,15.131 -12.798,4.371 -25.544,4.165 -37.97,8.229 z"
   id="path5601"
   style="stroke:#000000;stroke-width:2;stroke-linecap:round;stroke-linejoin:round" />
	<path
   d="m 140.172,86.77 c 1.623,0.825 6.358,0.339 7.857,0.714 1.922,0.48 3.113,0.689 4.643,1.072 1.711,0.428 3.352,1.017 5,1.428 1.779,0.445 3.174,2.063 3.928,3.572 0.852,1.701 2.988,0.521 3.572,2.857 0.421,1.684 0.357,3.494 0.357,5.357 0,2.021 0.697,3.197 1.785,4.286 1.239,1.239 2.352,3.066 3.215,3.928 0.653,0.654 1.664,0.286 2.415,0.23 2.276,-5.689 6.739,-10.779 11.112,-15.152 2.398,-2.399 8.586,-7.755 8.586,-11.617 0,-4.964 0.175,-6.479 -4.041,-8.586 -3.738,-1.87 -7.559,-2.021 -12.121,-2.021 -4.738,0 -9.664,-0.109 -14.143,1.01 -4.72,1.18 -6.928,3.55 -11.111,6.061 -6.139,3.683 -13.408,5.475 -12.627,6.061 0.524,0.266 1.048,0.533 1.573,0.8 z"
   id="path2178"
   style="stroke:#000000;stroke-width:2" />
	<path
   d="m 100.214,117.79 c 2.382,0 7.071,0.212 7.071,-3.03 0,-2.681 0.548,-5.498 -1.011,-7.577 -1.285,-1.713 -2.874,-5.385 -6.061,-6.041 -2.88,-0.592 -5.596,0.59 -7.071,3.03 -1.394,2.306 -1.198,2.991 -1.556,5.556 1.132,2.184 0.919,3.291 2.565,4.525 1.648,1.236 3.392,3.537 6.063,3.537 z"
   id="path2182"
   style="stroke:#000000;stroke-width:2" />
	<path
   d="m 43.842,126.376 c 1.521,0.609 -4.88,-2.439 -10.102,-5.051 m 10.607,10.102 c -5.537,-0.222 -7.408,0 -11.112,0 -9.684,0 -22.084,1.993 -29.799,3.536 m 44.446,0.505 c -1.474,0.295 -9.862,2.339 -14.647,3.535"
   id="path2184"
   style="stroke:#000000;stroke-width:2;stroke-linecap:round" />
	<path
   d="m 44.42,120.103 c 1.47,1.47 2.144,1.377 2.144,3.929 0,2.105 -0.12,3.094 1.071,4.285 2.045,2.045 0.863,0.834 1.429,-1.428 0.494,-1.978 0.162,-2.5 2.856,-2.5 0.907,0 4.54,-1.659 4.286,-1.786 -1.097,-0.548 -2.781,-1.056 -4.643,-1.429 -2.604,-0.521 -4.787,-0.729 -5.357,-2.857 -1.541,-0.77 -3.54,0.031 -1.786,1.786 z"
   id="path5840"
   style="stroke:#000000;stroke-width:2" />
</g>
</svg>